<svg id="Layer_1" data-name="Layer 1" xmlns="http://www.w3.org/2000/svg" viewBox="0 0 200 200"><defs><style>.cls-1,.cls-2{fill:#fff;}.cls-1{fill-rule:evenodd;}</style></defs><title>checkbox</title><path class="cls-1" d="M70.77,63.2c0,.24-.42.15-.32.48H70c-.08-.17.6-.28.16-.36C70.21,63.15,70.54,63.22,70.77,63.2Zm2-.81c0,.13-.3.08-.31.24-.31.13-.21-.21-.3-.25-.24-.1-.9.19-.76-.25A2.29,2.29,0,0,1,72.77,62.39Zm-2,1.05h.76C71.52,63.82,70.62,63.94,70.76,63.44Zm8.57-1.68c-.36.17-.29.25-.76.11-.28,0-.1.41-.32.48l-1.52,0c-.48-.11.27-.15.46-.11,0-.28-.52-.23-.44-.61-.28,0-.1.41-.32.48-.89.08-1-.42-1.35-.74a1.19,1.19,0,0,1-1.22-.14c.69-.25,1.74.25,2.43.4-.1-.12-.35-.13-.3-.37.56,0,1.2,0,1.21.5.85.29,1.42-.38,2.14-.33,0,0,.1.39.3.25,0-.34-.51-.24-.29-.73.49.26.68-.11,1.07-.1s.47.25.91.13c0,.12-.19.09-.31.12-.52.31-.4,1.14-1.25,1.18.38-.14.3-.65.63-.83,0-.14-.28-.1-.45-.13a4.74,4.74,0,0,0-.32.84C79.3,62.18,79.34,62,79.33,61.76Zm-5.52,1.6c.1.42-.54.42-.77.23C73.07,63.33,73.43,63.34,73.81,63.37Zm3.35,0h-.3c-.49.1-.47-.2-.76-.25-1.34-.1.23,0,.46-.23C76.74,63.11,77.19,63.08,77.16,63.42Zm-2.29.21c-.32,0-.4-.09-.61-.13.18-.22.81-.07.62-.59C75.23,63,75,63.54,74.87,63.62Zm-1.8-1.23c-.42-.06,0-.38.31-.24-.12-.3-1.06,0-1.21-.26.35-.25.54.06,1.07-.1,0,.28.52.23.44.61C73.39,62.52,73.18,62,73.07,62.4Zm-3.2.19c-.17-.52,1.26-.5,1.07,0A1.55,1.55,0,0,0,69.87,62.59ZM50.92,133.82c-.4-.11-.19.44-.25.7-.22-.07-.35-.62,0-.68,0-.25-.41-.06-.48-.26.22-.33,0-.82.14-1.18,0-.06.32.06.36,0s-.08-1.07.25-.6c.11.62-.2.67-.37.91a1.21,1.21,0,0,0,.23.86c.51-.19,0-.41,0-.85.59-.49,0-2.77.41-3.8.06,1.1.07,2.36,0,3.61,0,.67,0,1.12-.06,1.64l-.09,1.45C50.78,135.39,51.27,134.09,50.92,133.82Zm1.49,3.44c.52-.15.15.5.34.66s.08,0,0,.43C51.88,139.18,52.42,137.33,52.41,137.26Zm.38-1.15c-.1,0-.33,0-.36.15s.22.16.24,0c.36,0-.15.57,0,.86l-.24.13A17.19,17.19,0,0,1,52,135c0-.4.37-.51.14-1,.16-.15.19-.06.36,0,.33-.14.29-.56.38-.87.47-.11-.15.85.23.6.37.15-.36.34-.49.47.18.24-.22.31-.25.37s.06.32,0,.45-.36.1-.24.29.14,0,.24-.07c.3-.22,0-.24.25-.61,0,0,.21.11.24.06s-.19-.58.25-.56C53,135,52.88,135.46,52.79,136.11Zm-.36-.07c.06-.23.35-.32.25-.63C52.34,135.38,52.16,136,52.44,136ZM71.86,61.9c-.63,0-.6-.49-1.36-.38a.8.8,0,0,1,1.22,0c.31-.29,1-.52,1.37-.1s-.4-.11-.76,0S72,61.74,71.86,61.9Zm-18.77,77c.08.3-.57,1.45-.61.84C52.89,139.74,52.68,139.18,53.09,138.89Zm-.82-.21v.57C51.88,139.74,51.9,138.77,52.27,138.69ZM69.4,63.3h.46v.48h-.46C69.64,63.55,69.37,63.63,69.4,63.3ZM53.22,132.77c.16,0,.22.26.28.37a.37.37,0,0,0,.31.22,6.75,6.75,0,0,1-.17,1.94c-.3-.47.07-1.24-.08-1.75a.91.91,0,0,0-.2-.33A.65.65,0,0,1,53.22,132.77Zm3.1-49c.63.49.38,1.34.33,2.44-.4-.13-.06-.75-.1-1.22A8,8,0,0,1,56.32,83.78ZM81,62.39c-.66,0,.24.52-.47.47.1.12.35.13.3.36-.29.1-.49-.08-.76-.13s-.89.14-.76-.25a1.2,1.2,0,0,1,.76.13c.33,0,0-.41,0-.36.11-.23.69,0,.47-.47.7.3.85-.25,1.37,0a.5.5,0,0,0-.16.36C81.53,62.45,81,62.65,81,62.39ZM53.74,129.88a.61.61,0,0,1,0,.91c0,.15.15.12.24.16-.25.35.1.72.1,1.07,0,.17.13.69-.25.6.17-.65-.33-1-.34-1.38S53.79,130.53,53.74,129.88Zm53,13.07c.21.49-1.39.79-1.22.1.3,0,.19.33.6.25s-.16-.33-.3-.37c-.66,0-.39.66-1.08.59a1.31,1.31,0,0,1,1.24-.82C106.36,142.71,106.35,142.95,106.75,143Zm-12.63-.54c-.37.05-1,.29-.91-.25.29.06.27.35.76.25.12-.41-.61-.16-.44-.61.41.07,1.46.49,1.22,0,.23-.32.83.06.75.37-.18,0-.44-.07-.61,0s-.13.23-.16.24C94.54,142.46,94.31,142.38,94.12,142.41ZM96.37,144c-.47.27-1.57,0-2.29.09a.8.8,0,0,0,.32-.84c.52-.12.23.38.29.6.41.12.19-.24.31-.36s.36-.13.3,0a.37.37,0,0,0-.14-.48c-.09-.07-.19.1-.15.12-.15-.06-.61-.55-.91-.37.18-.29.79-.3.91,0,.82,0,.77-.36,1.53-.1,0,.31-.52.23-.92.23v.36c.6,0,.62-.4,1.22-.1.18,0,.13-.22.16-.36.42-.08.3.24.6.25s.31-.4.92-.23c0,.4-.44.45-.93.47-.55.25-.47.45-.63.83-.58.17,0-.54-.6-.37C96.18,143.79,96.21,144,96.37,144Zm8.43-2.4c.22-.19.29.11.61.13s.45-.14.61-.11c.41.08.65.36,1.06.38-.41.65-1.06-.32-1.68.1A1.25,1.25,0,0,0,104.8,141.6Zm-2.14.33c-.07-.24.71-.38.77-.11.37-.15.57-.43,1.23-.34-.78.17-.27.51.29.6-.67.63-1.29-.23-2.14.09A.18.18,0,0,0,102.66,141.93Zm-13.57.41h.46c-.09.29-.14.62-.62.59C88.81,142.6,89.15,142.63,89.09,142.34Zm.12,1.56c.29.05.27.35.76.25.16-.08.16-.27.46-.23,0,.17,0,.34.14.36C90.19,144.41,89.25,144.53,89.21,143.9Zm1.52.26c.18-.48.72,0,1.37-.1-.28-.53,1,.1,1.53-.22.11.52-.8.3-1.23.34C91.78,144.25,91.09,144.43,90.73,144.16Zm-.29-.6c0-.12.19-.09.31-.12a.34.34,0,0,0-.3-.37c0-.16.89-.14.31-.36.08-.43.53.11.61.13s.44,0,.61,0,.09.22.15.24c.23.09.54-.06.45.25.27,0,.77-.11.6.25-.39-.17-.93-.12-1.37-.26-.27-.08-.52-.74-.91-.25.27.23,1,.1.9.61C91,143.78,91.07,143.27,90.43,143.56Zm16.34-1.69c-.09-.11-.18-.22,0-.24.64-.1,2.11.1,3.2,0,.55-.08.55.22,0,.12A12.34,12.34,0,0,1,106.77,141.87ZM91.38,142c.29-.17.19-.66.78-.59-.46.17.39.63-.32.6.09.25.77,0,.6.49-.57-.36-1.29,0-2.13-.27.4-.31-.24-.1-.14-.48C90.87,141.62,90.76,142.09,91.38,142Zm.33-1.2c-.49-.3,1.09.08,1.07-.23.43.2.65-.13,1.06.13-.56.08-1.35.46-1.68.34C92.68,140.82,92.3,140.8,91.72,140.81Zm10.62,2.07c.31.07.35-.23.46-.23.39,0,.18.32.6.37-.36.38,0,.63-.63.71-.1-.37.27-.35.17-.72-.39-.06-.87.41-.47.59a.08.08,0,1,1-.15,0H102c-.1-.37.42-.22.32-.6-.68.11-.81.33-1.37.1,0-.35.36-.44.62-.59C102.08,142.52,102,142.81,102.33,142.89Zm18.15-.94c-.28-.24,1.22-.05,1.68-.1C121.89,142.39,121.13,141.84,120.48,141.94Zm-6,2.32a1.6,1.6,0,0,0,1.21.26c-.07.38-1.06.37-1.07.1-.06.27-.61.15-.77.35.47.38,1.48-.05,1.68-.1,0,0,0,.23,0,.24a1.17,1.17,0,0,0,.62-.47c.26,0,.39.1.45.25a3.47,3.47,0,0,1,1.07-.11c.58-.17,0,.54.6.37.21,0,0-.21-.15-.24.12-.27.86,0,1.22-.1-.19.17-.59.17-.77.35,0,.1.15.12.15.24.34,0,.49-.25.77-.35-.15.4,1.16.32,1.51.38a3.25,3.25,0,0,1-.92.35c0,.16.38.1.61.13a8,8,0,0,1-3.21.43c-.26,0-.29-.06-.3-.24-.16.05-.12.21-.31.24s-.24-.25-.3-.25-.26.21-.46.23-.78-.25-1.21-.26c-.68,0-1.3.14-2,.09s-1.17-.32-1.82-.39a.93.93,0,0,0-.46.11c-1,0-2-.44-2.89,0a1.12,1.12,0,0,0-.45-.25c.13-.26.94,0,.77-.47a5.13,5.13,0,0,0-1.23.58c-.71-.42-2-.09-3-.28-.37-.07-.33-.24-.6-.37s-.92-.05-1.06-.37c.13-.56.88-.11,1.22-.1s1,0,1.37,0a.42.42,0,0,0,.31-.12,4.54,4.54,0,0,1,.45.25c.18,0,.54-.12.76-.11.54,0,.7.14,1.22-.1,0,.35-.62.44,0,.6.23,0-.06-.15,0-.36.34-.13.84-.13.92-.47a21.54,21.54,0,0,1,2.89.4,1.59,1.59,0,0,0,1.24-.7,4.09,4.09,0,0,0,1.37.14v.48C114.27,144.65,114.53,144.58,114.49,144.26Zm-5.49.28c0,.14.16.19.3.24,0-.56-.43-.24-.91-.25.13.21,0,.6.29.73C109,145,108.49,144.73,109,144.54Zm1.06.26c-.48-.06-.41.32-.77.35,0-.12-.26-.15-.3,0,.57-.12.23.45.75.37C109.58,145.06,110.12,145.18,110.06,144.8Zm1.06.26c-.07-.34-.57-.35-.9-.49-.13.34.21.31.14.6C110.72,145.22,110.69,144.95,111.12,145.06Zm6.53.81a.18.18,0,0,1,.15.24c.37-.06.79-.09.77-.47C118.13,145.61,117.8,145.66,117.65,145.87Zm-4.56-.43c-.49.13-1.5-.31-1.22,0C112.05,145.53,113.44,145.68,113.09,145.44Zm.48-.83c-.09-.71-1.55-.07-1.68.34C112.76,145.09,112.62,144.4,113.57,144.61Zm-60.73-4.77c0,.22.07.14.19.06s.31-.23.42-.16a3.23,3.23,0,0,1-.68.42,1,1,0,0,0-.41.36A1.21,1.21,0,0,1,52.84,139.84Zm82.24,3.51c-.21.51-.76,0-1.37.1C133.34,143.23,134.71,143.39,135.07,143.35Zm-28-.28c.58-.17.29.33.76.25-.22.37-.75-.18-.92.11C106.37,143.3,107.31,143.4,107,143.07Zm1,1.1c.08.27-.3.17-.31.36a1.56,1.56,0,0,0-1.07,0C107,144,107.4,144.32,108.09,144.17Zm3.41-2.47h.61a.5.5,0,0,0-.16.36h.3c.19,0,.16-.24,0-.24.19-.36.58.09.76.13,0-.21-.18-.25-.14-.48.36.42.8.32,1.52.26-.05.28-.72.06-.62.47-.09,0-.45-.25-.45-.25s-.16.24-.16.24a5.72,5.72,0,0,0-1.37,0C111.8,141.94,111.38,142,111.5,141.7ZM83.73,62.79c0,.36-.55.42-.77.23C83,62.75,83.35,62.77,83.73,62.79Zm26.68,80c.63,0,1.1.51,1.37-.1.57-.12.43.3.91.25.59.1.8-.43,1.22-.1-.15.23-.64.31-1.23.34C111.92,143.2,110.54,143.33,110.41,142.76Zm-.31.12c-.14,1-1.31.05-2,.45.19-.54.09-.15-.3-.37C108.36,142.37,109.29,143.31,110.1,142.88Zm1.19,1.1c.27,0,.33-.13.61-.11.23.48-.66,0-.62.35a11,11,0,0,0-2.28-.27C108.77,143.61,110.87,144,111.3,144Zm23.07-9.52c-.4.51-.56,1.22-1.25,1.54-.11,0-.53,0-.76.11a1.86,1.86,0,0,1-1.38.22,4.41,4.41,0,0,0-.77.35c-2.19-.13-3.58.2-5-.07a1.14,1.14,0,0,1,.46-.23c-.1-.38-.4-.16-.76-.13a1.11,1.11,0,0,0-1.21-.5,2.53,2.53,0,0,0,1.35.74c-.6.29-1.12-.11-1.83.09.27-.41-.44-.42.32-.48a1,1,0,0,0-.91-.13c0,.38.59.33.44.85h-.76c1-.15-.16-.79-.6-.49,0,.18.33,0,.45.13.36.23-.85,0-1.22.22-.1-.12-.35-.13-.3-.36-.47.29-1.16-.22-1.67-.38.79-.17,1.72-.22,1.85-.93.16,0,.1.24.3.24.46-.07-.14-.26,0-.48.57.1.73-.14,1.22-.1.15.36-.34.21-.61.23-.15.56,1.07.28,1.22,0,.48-.05.34.37.91.25l.47-.35c0-.27-.49,0-.46,0-.2,0-.23-.24-.45-.25a2.47,2.47,0,0,1-1.22,0c1.34-.13,2.74-.2,4.12-.3a1.44,1.44,0,0,0,0,1.2c.46.09.45-.2.92-.11.42-.1-.4-.23-.14-.6h.76c-.05-.55-.47-.46-1.06-.38.38-.46,1.57-.27,2.3-.45a.5.5,0,0,0-.16.36c.38,0,.48-.18.77-.23a.41.41,0,0,0-.3-.24,9.33,9.33,0,0,1,2.75-.44c-.17.17-.17.29.14.36s.64-.43.32-.48c0-.26.65,0,.92-.11C133.87,133.49,133.92,134.12,134.36,134.45Zm-10.84,1.17c0-.38-1.13-.54-1.22-.14C122.73,135.67,122.93,135.45,123.52,135.62Zm2.74-.08c-.45-.33-.63-.32-.43-1-.78-.14-.24.71-.47.71-.22-.3-1.42-.37-1.38.22.48.14.37-.18.61-.23C125.21,135.41,125.74,136,126.27,135.54Zm3.22-.68c-.6-.22-.75,0-1.07.11s-1-.15-.77.23c0,.25.67,0,.76.25C128.62,134.87,129.1,135.18,129.48,134.86Zm-.32.72c-.05.32.31.31.6.37C129.92,135.55,129.56,135.55,129.16,135.58Zm1.09-.95c-.38,0-.48.18-.62.35.21,0,.29.17.61.13Zm.47-.35c-.13.09-.43.83.13.72C131.08,135,131.2,134.12,130.71,134.28Zm2.14-.45c.16,0,.12-.15-.15-.12,0,.39.17.58.6.61C133.44,133.93,132.8,134.15,132.85,133.83Zm-72.2,6.42a3.24,3.24,0,0,0-.74-.09c-.23,0-.33-.08-.34-.29a.84.84,0,0,1,.29,0l.34.07A1.9,1.9,0,0,0,61,140C60.92,140.15,60.66,140.09,60.65,140.25Zm-.45-.49c-.51-.27.71-.52.92-.23C61,139.79,60.38,139.33,60.21,139.77Zm5-.17c-.08.25-1.34.85-1.83.21a4.14,4.14,0,0,1-.92.23c0-.1.06-.11.15-.12s-.06-.11-.15-.12c.47-.53,2,.56,2-.33C64.91,139.37,64.87,139.64,65.24,139.6Zm-6,.39c-.48-.11-.58.33-1.08.22.13-.51.71-.27.92-.58.13.1.56.49.23.73,0,.37.44-.36.43,0s-.52.34-.79.23C58.94,140.2,59.19,140.22,59.26,140Zm3.82.78c-1-.13-1.4,0-2.43-.15.14-.54.75-.7,1.54-.7.23.48-.66,0-.62.35C62,140.68,62.84,140.14,63.08,140.77Zm32.59.22c0-.21.27-.31,0-.36.24-.36.68.1.6.37Zm-38.31-.56c.32-.09.48.22,1.09,0-.09.28-.54.06-.56.47C57.64,140.8,57.16,140.87,57.36,140.43Zm-3-1.41c.34-.27,1.18-.37,1.13,0-.25.45-.17,0-.26,0S54.5,139.18,54.41,139Zm10.35,1.65c1,0,.12-.77,1.08-.71-.1.33-.49.41-.48.83-.63,0-1.34.3-1.52-.26C64.3,140.64,65.13,140.18,64.76,140.67Zm-8.63-1.85c.37-.27.77,0,1.15-.09A1.18,1.18,0,0,1,56.13,138.83Zm.39,1.1c.16.22.33,0,.56.13-.13.25-.44.1-.58.35C56.39,140.33,56.42,140.15,56.52,139.93Zm-2.92.3c.31-.32.21-.4-.08-.37.72-.54.73.08,1.37-.22,0,.16-.25.45-.06.49.36-.07.09-.26.35-.48,0,.1.13.13.3.13,0,.23-.58.39-.32.48-.14.17-.84.4-.72.11-.21,0-.39.33-.62.23.16-.26.34-.23.52-.23.18-.19.06-.21.18-.36-.52.19-1.08.7-1.68.7.78-.54.06-.23-.32-.13.2-.22.38-.25.58-.48C53.49,140,53.2,140.31,53.6,140.23Zm4.59-1.72c.11.26.5,0,.8,0,.14,0,.15.12.31.13s.18-.13.34-.11l.29,0,.49,0,1.06,0c.73,0,1.5,0,2.25,0-.06.66-1,.21-1.38.22s-.71.32-1.07.1c-.19,0-.16.24,0,.24-.16.3-.67-.11-.6-.37-.31,0-.66,0-.89,0h-.46a1.93,1.93,0,0,0-.86.15C58.34,138.87,58.12,138.83,58.19,138.51ZM97,140.77c-.39-.32.91-.42,1.22-.22C98.2,140.89,97.13,140.42,97,140.77Zm1.76,3c-.29,0-.6-.33-.91-.25-.08-.48,1,.14.91.13.12,0,.74-.11,1.22-.1a3.63,3.63,0,0,0,1.22,0c0,.21.26.28.6.25-.48.34-1.09-.13-1.82-.15C99.57,143.69,99.21,143.86,98.81,143.8Zm-1.32-2.3c.1.37-.53.14-.32.6-.26,0-.39-.09-.45-.25C97,141.74,96.92,141.36,97.49,141.5Zm-.77.35c-.43,0,.17.79-.47.59-.19-.3.46-.49,0-.6A.23.23,0,0,1,96.72,141.85Zm.57,1.93c.46,0,.58.39.91.13C98.69,144,96.94,144.47,97.28,143.78Zm-24.69-6c.63,0,.59.17,1.07,0,0,.68-.91-.15-.78.59C72.37,138.5,72.65,138,72.59,137.78Zm16.76,0c.82-.37,1.9.08,2.74,0,.67,0,1.08-.43,1.53-.22,0,.34-.59.17-.92.23s-.54.21-.77.23-.22-.12-.3-.12-.61.27-.76-.13A2,2,0,0,1,89.35,137.78Zm10.24,5.31c-.13.18-.49.17-.77.23C98.72,142.9,99.36,142.89,99.59,143.09Zm1.56-1.66a3.45,3.45,0,0,0,.9.37c-.49.9-1.87.42-2.9.44-.18,0-.13.22-.16.36-.42-.46-.82,0-1.37.1s-.39-.33-.75-.37c.5-.3,1.07.16,1.68-.1.27-.18.28-.59.78-.59,0,.19-.15.2-.16.36C100.05,141.82,101.12,142.41,101.15,141.43Zm-2.68-2.68c.16-.52.74-.5,1.38-.34.18-.24,1.31-.45,1.22.14A23.07,23.07,0,0,1,98.47,138.75Zm32.66-58.49c-.22-.73-.06-1.92-.2-2.75A6.23,6.23,0,0,1,131.13,80.26Zm-86,53.41c.39.12.16.81.11,1.3C44.87,134.88,45.11,134.15,45.16,133.67Zm.59,1.46,0-1.89C46.08,133.2,46.18,135.18,45.75,135.13Zm-1.2-.09c-.37-.13-.15-.6-.11-1.14C44.74,133.92,44.71,134.73,44.55,135Zm1.45-9.9c-.27-.07,0-.75-.11-1.07C46.35,124.22,46,124.68,46,125.14Zm-2.54,10.49c.16,1.69-.09,2.59,0,3.91-.45-.2,0,1.11-.49.93.16-.88,0-1.61.14-2.3,0-.05.22,0,.24-.06.1-.23-.07-1,0-1.23-.1-.35-.18.1-.48-.16.4-.68,0-1.33.26-2.29,0-.28-.12-.13-.12,0-.37-.24.14-.68.13-1,.27-.1.29,1.47.47.73.28.44-.2,1.24-.49.76C43.23,135.14,43.14,135.83,43.46,135.62Zm2.48,3.83c-.43,0-.15-1.47-.22-2.22C46.24,137.52,45.66,138.73,45.94,139.45Zm-1.59-16.79c.3,0,.38-.22.49-.45a.88.88,0,0,0-.36-.31,3.11,3.11,0,0,0,.14-1.06c.3.37.38.08.59.47-.19.59-.14,0-.48,0,.05.53.55.53.34,1.38-.66-.06-.34.29-.37.91-.52,0-.59-.57-.58-1.23C44.32,122.3,44.34,122.47,44.35,122.66Zm-.21,16.85c.24.16-.16,1.32,0,2.11C43.75,141.75,44.07,140.1,44.15,139.51Zm-1.66-2c-.26.1,0-.91-.11-1.27C42.84,136.31,42.69,137.09,42.49,137.54Zm1.67-17.78c-.15-.27-.4-.41-.35-.92C44.17,118.84,44.1,119.38,44.16,119.76Zm.18-4.26a.84.84,0,0,0-.13.45c-.15-.27-.4-.41-.35-.92C44.11,115.08,44.09,115.45,44.34,115.5Zm1.6,24.78c-.08,2.88,0,3.6-.19,6.59-.18.84-.1-.66-.11-1.17L45.7,140C45.9,139.81,45.92,140,45.93,140.28Zm-1.87-31c0-.66.31-.58.61-.44C44.71,109.27,44.28,109.11,44.06,109.25Zm-1.34-6.89c0-.4.05-.65.37-.6C43.12,102.16,43,102.41,42.72,102.36Zm0,5.94a7.08,7.08,0,0,1,.16-3c.06-.48-.36-.35-.23-.92.1,0,.12.16.24.16a3.75,3.75,0,0,0-.22-1.68c.59.21.58-.37.73-.74.56.38,0,1.39-.26,1.67a1.07,1.07,0,0,1,.7,1.24c-.33.06-.1-.57-.35-.62-.37.14,0,.51.11.61-.12.15.14.72,0,.91,0,0-.24,0-.24,0,0,.2.19.35.23.61s-.12.21-.13.3.27.4,0,.76c-.05.06-.07.24-.12.3S42.75,107.52,42.76,108.3Zm.37-.6c-.09-.69.66-1.2-.22-1.22C42.93,106.94,42.75,107.66,43.13,107.7Zm2.82,12.71c.41.09.17.74.11,1.07C45.79,121.41,46,120.73,45.95,120.41Zm-.6-.32c.27.32,0,1.27.09,1.83C45.18,121.61,45.42,120.66,45.35,120.09Zm.89-20.7c-.4-.3-.07-.62-.1-1.22C46.36,97.77,46.22,99.07,46.25,99.4Zm-.07,5.18a6.71,6.71,0,0,1-.09-2.14c0-.69.09-3.15.15-1.82C46.27,101.62,46.15,103.47,46.17,104.57Zm7.64-45.35c.71.54-1,0-1.27.22,0-.27.41-.47,1-.1C53.7,59.35,53.89,59.36,53.82,59.23Zm2.15.39a6.44,6.44,0,0,0-1.6-.15C54.52,59.19,55.69,59.1,56,59.62Zm1.21,1c.28,0,.16.41.16.48-.25,0-.4-.2-.62-.25C56.68,60.51,57.32,61.1,57.18,60.59ZM47,147.32a8.42,8.42,0,0,1,3.15,0A10.82,10.82,0,0,1,47,147.32Zm-3.18-45.39c-1-.09-1-1.35-.57-2.3,0-.21-.21,0-.24.15-.37-.44.18-1,.26-1.37,0-.19-.15-.07-.12,0a2.4,2.4,0,0,1,.14-1.67c-.18-.23,0-.87-.47-.77.36-.59.18-1.28.15-2.13.16-.36.61-.33.61-.9-.24-.37-.26.84-.73.29,0-.31,0-.48.25-.45a16.76,16.76,0,0,0-.07-3.2c0-.33.11-.48.37-.45C43,88.89,43,88,43.18,87.29c-.31-.17-.22-.83-.34-1.23.26-.07.23.22.23.46.36-.39-.15-1,.14-1.37,0-.17-.12-.09-.12,0-.45-.17.09-.24.13-.45v-.76c0-.25,0-.52,0-.76a1.26,1.26,0,0,1,.25-.45c0-.17-.3-.39-.35-.62s.13-.27.13-.45-.13-.15-.12-.31c.06-.6.3-1,.14-1.37,0,0-.15.22-.14.38a6.81,6.81,0,0,1,.17-2.06c0-.24-.12-.49-.11-.76a1.78,1.78,0,0,0,.13-.61c0-.21-.18,0-.24-.16-.13-.28.11-.78,0-1.07.21,0,.27.27.23.61.19-.61.44.22.72-.14,0-.12-.12-.15-.12-.31-.07-.46-.26.14-.48,0s.05-.33,0-.61c0-.06-.23-.43-.23-.46s.39-.69-.11-.61c-.06-.34.23-.21.25-.45s-.09-.29-.24-.31a2,2,0,0,0,0-1.83,3.88,3.88,0,0,0,.38-1.21c-.2-.06-.23.11-.24.3-.18-.27.05-.55-.1-1.07,0-.28-.41-.1-.48-.32.18-.47-.29-.66-.35-.92a1.62,1.62,0,0,1,0-.37,4.69,4.69,0,0,0,0-.72c-.21-1.88,0-5.48.07-8.28,0-.55-.31-1.65.13-1.72.07-.52-.23-.52-.23-.93.08-2.22,0-4.11.12-5.64.55,0,1.11.1,1.68.19a3,3,0,0,1-1.42.07,4.65,4.65,0,0,0,0,1.6c.43.74.26-.65.25-1.26v-.05a4.7,4.7,0,0,1,.81.12c.57,0,.61-.28,1.05-.23,1.58.28,3.23.36,3.73-.09,2.33.18,4-.17,5.66.29a9,9,0,0,1,2.83-.18c.56,0,1.12.07,1.66.11l.78.07.35,0,.21,0c.35-.5,1.52-.09,2.59-.08.82,0,1.6-.22,2.29-.21l2.74,0c.82,0,1.68.33,2.29-.09.39.39.73,0,1.22,0,.25,0,.26.12.45.13.84,0,1.89-.18,2.9-.2.54,0,1,.16,1.52.14.32,0,.6-.2.92-.23s.7.15,1.06.14c.51,0,1-.31,1.53-.1.15,0,.12-.15.16-.24a3.54,3.54,0,0,0,1.22.14c.46.28.72.71,1.66.62.3.36-.64.57-.48,1.19.17.33.79,0,1.07,0s0-.18.16-.48c.57-.08.32.46.75.49s.44-.29.92-.23c0,.22.18.26.14.48.53.1.59-.17,1.07-.1,0,.19-.15.2-.16.36.56-.07,1-.21,1.37.14.18,0,.08-.14,0-.12a2.94,2.94,0,0,1,1.82.15c.29-.09.11-.36.46-.11a1.49,1.49,0,0,0,.92-.47c.2.12.19.41.45.49a.85.85,0,0,1,.46-.11c0-.28-.25-.36-.14-.72.39,0,.18.09.15.24.42.13.4-.19.76-.11s.75,1,1.06.26c0-.15-.45-.16-.46,0-.25-.13-.15-.51-.29-.73a3.57,3.57,0,0,1,1.22-.1c-.07.27-.83,0-.77.35a2.07,2.07,0,0,0,2-.33c.49.14,1.45-.08,1.36.5.57.14.44-.29.92-.23.28.1-.09.13-.31.12.06.38,1,.5.43,1a1.17,1.17,0,0,0,1.07,0c-.12-.18-.49-.18-.76-.25.25-.18-.23-.69.47-.71s-.17.17,0,.48c.52,0,.67-.39.91,0,.46-.07-.14-.26,0-.48.28.22,1,.1,1.52.14.29.18-.28.5.29.6a.42.42,0,0,0,.46-.23c0-.17-.45,0-.45-.25-.15-.41.48-.18.77-.23-.13-.46-.61-.1-1.06-.14.27-.62,1-.14,1.83-.21-.06.16-.27.19-.31.36,1-.21,1,.37,1.36.62.12,0,.15-.12.31-.12-.22-.38-.64-.61-.74-1.09.33.1.6.25.6.61a.68.68,0,0,0,.77-.35.5.5,0,0,1,.29.48c.49-.06.19-.27.92-.11.24.05.61.08.6.25.56-.08-.06-.36.32-.6h-.46c.16-.23,1.11-.07.91.37.68-.09.91.17,1.52.14-.36-.25-1.62-.28-1.2-.74.43,0,.35.37.75.37.12,0,.15-.12.31-.12,0-.21-.18-.26-.14-.48-.32-.06-.41.08-.61.11-.27-.31.94-.22,1.22,0,0,.22-.19.25-.16.48.59-.2,1.61-.16,1.82.27.3-.22-.12-.41-.29-.6.85-.33,1.56.69,2.58.28.47-.08.18.42.76.25.49.11.32-.31.62-.35.73.26,1.19,0,1.67.38.16-.08.16-.27.46-.23.21-.11.21-.4.47-.47-.17-.15-.13-.25.16-.24,0,.36-.44.72.13.84.39,0-.2-.21,0-.48.59.08,1-.23,1.38-.22s1,.43,1.67.38c.36.05-.07-.55.47-.35.48,0,.07.15.15.24s.49.05.45.37c.62-.13.2-.41.47-.71a3,3,0,0,0,1.68,0c.32.25,0,.39-.17.6.25.26.94,0,1.53-.1-.14.42.09.53-.47.71.06.16.34.1.65.13.5,0,.12-.51.27-.72.71,0,.6-.43,1.46-.35.28,0,.24-.22.3-.36,1.55.18,3.06,0,4.34.16.24,0,.25-.15.35-.24,1,.06,1.82-.06,2.45,0,0,0-.17.22-.14.24s1-.07,1.2,0,.33-.24.65-.24c.58-.39-.74-.1-.17-.48,1.38-.33.11.71,1.82.26-.09.19-.4.2-.53.36.61.16,1.65-.34,1.69,0,.3,0,.4-.22.57-.36a9.08,9.08,0,0,0,2.27.06l.15,1.27c-.17.1,0-.71-.23-.53-.4.65.46,2.33.35.68.27-.12,0,1.22.1,1.68-.25.08-.32.42-.48.61,0,.26.12,0,.12-.09.42.31-.41,2.67.22,2.6.05.77-.37.77-.25,1.63.26,0,.23-.47.25-.87.26.11,0,1.47-.14,1.82s.42-.51.35.61c.05.53-.18.55-.36.64a13.88,13.88,0,0,0,.34,2.42c0,.15-.11.33-.13.53s.12.41.12.49c0,.63-.07,1.74,0,2.79v.68l0,.54c0,.39.31.75,0,1.07a.73.73,0,0,0-.13.61,1.85,1.85,0,0,0,.24.16c0,.06-.57,1.06.1,1.22,0,.6.07.94.09,1.83a3,3,0,0,0,.11.61c0,.2-.24.23-.25.45,0,.48.39.42,0,.76l.35.46a54.87,54.87,0,0,0,.39,6.41.85.85,0,0,1-.36.3,16.12,16.12,0,0,1,.66,4.43c0,.4.47.13.35.62-.38-.08-.49.18-.61.44.37.12.24-.41.61-.29,0,.38,0,.74-.25.76a.51.51,0,0,0,.48.32,24.47,24.47,0,0,1,0,2.59,1.85,1.85,0,0,0-1.31-.49c-.06.32.17.29.36.31-.07.42-.47.42-.73.59.23.75-.24,1.41.21,1.83.06.34-.23.21-.25.45s.24.11.24.31c.09.53-.19.58-.14,1.06-.25.09-.46.22-.37.75.39.36.16-1.24.36-.3a2.37,2.37,0,0,1,0,.61c.06.38.22.46.23.61s-.13.32-.13.61a29,29,0,0,1,.07,3.35c0,.18.22.13.36.16a4.16,4.16,0,0,0,.32,2.75c.05.31-.13.5-.13.76s.23.37.23.46-.22.21-.24.3a7.65,7.65,0,0,0,.11.76,3,3,0,0,1,.11.92c.16,0,.11-.38.13-.61.23-.36.07,1,.1,1.37-.3-.36-.39.44-.6-.17-.33.13.31.29.11.76.27.22.46-.38.48,0,0,.6-.18-.05-.36.3s.29.19.36.31-.16.81.23.61a12.51,12.51,0,0,1-.15,2.13c-.38-.08-.47.32-.72,0a6.75,6.75,0,0,0,0,2.74c0,.13.12.13.24.16.15,1.26-.35,2.66.07,3.35-.11.66-.34,1.65.22,1.68-.13.41.1.79.1,1.22s-.15.67-.13.91.21.36.23.46a13.1,13.1,0,0,1,.09,2,18.7,18.7,0,0,0,.09,2.29,12.24,12.24,0,0,1,.34,1.38,6.16,6.16,0,0,0,.1,1.68c-.37-.12-.44.15-.72.14.1-.57-.45-.34-.47-.77-.33.13.16.48,0,.91-.37-.39-1.06-.52-1.32.12,0,.08.22.34.23.46,0,.32-.08,1.06,0,1.67s.36.83.1,1.37c.42.35.27,1.92.44,2.9.05.31.27.46.35.77a8.3,8.3,0,0,1-.16,2.59c-.46-.09-.5.38-.85.44-.19.84-1,.9-1.22,1.65-.43-.32-.48,0-.61.44-.58-.57-.84.38-1.33.43,0-.25-.11-.26-.11-.46-.16,0-.11.38-.13.61-.3-.37-.38-.07-.59-.47-.2-.06-.23.11-.24.3-.07-.2-.33-.12-.48-.32,0,0,0-.27,0-.3s-.55.07-.6-.17.17-.17.13-.3a1,1,0,0,0-.59-.62c.1-.53-.17-.59-.1-1.07,0-.18-.22-.13-.36-.16.47-.73.39-2.18,1-2.72l0-1.22c-.72-.07-1,.45-1.57.57-.08-1-.74.08-1.08-.33v-.61c-.28,0-.36.25-.72.14.1-.83.08-1,.14-1.67a.76.76,0,0,0,.49-.6c0-.53-.33,0-.36-.31v-.61h.48c-.13-.6.38-1-.1-1.22-.19,0,.22.91-.37.75l.07-4.72c0-.2-.21-.24-.23-.46-.28,0-.36.25-.72.14-.12-.74-.42-.66-.22-1.53-.36-.16-.22.33-.25.6-.11.48-.15-.27-.11-.46.14-1.05-.28-2.85.41-3.19a1.26,1.26,0,0,1-.34-1.23c.17,0,0,.46.23.46s.12-.15.24-.15c-.07-.36-.15-.71-.47-.77-.1-1.06.34-1.89,0-2.74.35.79.29-.63,0-.76,0-1,.1-2.07,0-2.89-.16-2.23.4-5.08-.14-6.71.09-.27.22,0,.36,0,0-.18,0-.27.13-.3,0-.43-.22-.37-.23-.77s.26-.64.25-.91-.28-.41-.23-.77.11-.48.37-.45c-.14-.33-.51-.38-.34-1.07.13,0,.08.3.24.31.21-.18,0-.64.13-1.06,0-.05.24-.28.25-.3.13-1.11-.18-2.35-.08-3a.88.88,0,0,0-.36-.31c.44-.58.13-1.66,0-2.44h.36c-.09-.34-.06-.83-.35-.92.12-.46.32.18.48.16,0-.53-.23-.72-.35-1.07a3.68,3.68,0,0,0-.21-2.14c.07-.22.18-.38.25-.6a21.21,21.21,0,0,1-.38-7.17,10.5,10.5,0,0,0-.35-1.07,9.45,9.45,0,0,0,.27-1.82h.48c-.19-.55-.7-1.49-.21-2,.32.19,0,.79,0,1.07s.53.35.47.92a.73.73,0,0,0,.25-.6c.19.49.74.24,1,.48.51.56.17,1.35.45,2.14-.05.29-.05.65-.37.6.06.23.17.39.23.61.21,0,.28-.26.25-.6.27.36.08,1.44,0,1.83-.37-.18-.32-.08-.6.14,0,.38.44.52.11.92a.18.18,0,0,1,.24.16c.37,0-.17-1.26.38-1.06a6.35,6.35,0,0,1-.15,1.82c.09.57.42,0,.6.32,0-.47-.27-.87,0-1.22a.51.51,0,0,1,.48.32.7.7,0,0,0,.37-.45c-.21-.56-.34.26-.6.14.06-.32-.17-.29-.36-.31-.08-.47.13-.55.13-.91.16.05.09.38.11.61.54-.22-.06-.82-.23-1.07,0-.57.31-.73.5-1.06-.07-.31-.61-.06-.47-.62.12-.26.38-.32.61-.44-.12-.21-.4-.21-.47-.47-.06-1.43.1-3.34.07-5.18,0-.35-.34-.18-.35-.47a.73.73,0,0,0-.25.6c-.38-.42-.76.16-1.09.28v-.61c.36.23.69.14.73-.44-.37-.12-.15.52-.6.29a1.38,1.38,0,0,0-.1-1.53c-.25.26,0,.58,0,.91a5.82,5.82,0,0,1-.5,1.36c-.15-.22-.63-.56-.72,0a6.26,6.26,0,0,0-.58-1.38c-.08-.42.24-.3.25-.6s-.09-.78-.1-1.22c0-.25.13-.26.13-.45a9.93,9.93,0,0,1-.1-1.37c.12-.92,0-2.81.05-3.81,0-.28.34-.75-.11-.92-.08-.42.24-.3.25-.6s-.09-.29-.24-.31c-.1-.33.4-.14.37-.42s-.28-.56,0-.86c0-.12-.22-.05-.36,0a2.28,2.28,0,0,0,.27-1.43.53.53,0,0,0-.36-.07c0-.8.1-2.51.08-4-.67,0-1.31,0-1.87.07-.3,0-.63.19-.95.22-.67.08-1.18-.15-1.78.08.45.11.2.34-.31.36a5.86,5.86,0,0,0-.91-.05l-.95,0h-1.25c-.25,0-.26-.13-.45-.13a9.88,9.88,0,0,1-1.07.1c-.33,0-.59-.14-.76-.13-.36,0-.62.34-1.38.22a1.2,1.2,0,0,1-.45-.25c-.23,0-.5.31-.77.35-.08,0-.27-.13-.45-.13-.39,0-.8.22-1.22.22s-2-.12-2.59,0c-.17,0-.15.31-.46.23,0-.2.15-.2.16-.36-.27,0-.32.14-.61.11a.18.18,0,0,0,.15.24c-.07.33-.48,0-.3-.24a1.51,1.51,0,0,1-.92.11c-.12,0-.84.23-1.07.23s-.58-.14-.91-.13c-.91,0-2.09.13-2.9.08-.39,0-.84.22-1.22.22s-.26-.1-.45-.13a8.89,8.89,0,0,0-1.22.1,5.29,5.29,0,0,1-.76-.25,6.32,6.32,0,0,0-.91-.13c-.13,0-.4.23-.46.23-.25,0-.26-.11-.45-.13s-.33.12-.61.11-.61-.15-.91-.13-1.63.48-2.44.09c-.13.23-1.25.33-2.14.33-.22,0-.53-.14-.76-.13a31.21,31.21,0,0,1-4.73.17c-.3,0-.56-.37-.91-.13,0,.14.28.1.45.13-.33.21-1.75.24-1.67-.26-.11.31-.38.13-.92.23a2.13,2.13,0,0,1-1.38.22c-.07-.26.22-.23.46-.23-.09-.11-.34-.45.16-.36-.09-.36-.33.11-.61,0a.58.58,0,0,0,.16-.48c-.43-.11-.4.16-.76.11.18-.48-.45-.6-.75-.37.18.41.83.47.89,1-.23.18-.65.21-.77.47-.22-.15-.22-.46-.44-.61-.44,0-.38.57.14.48-.55.41-1-.27-1.05-.62-.29.25-.9.24-.78.83-.22,0-.43,0-.46.11-.31-.24-1-.18-1.05-.62.4,0,.76,0,.6.37h.76c.14-.46-.73-.15-.6-.61.48-.13.4-.05.76.13,0-.41-.67-.36-.74-.73-.47,0-.69.41-1.07.1,0-.56,1.11-.88.94-1.19.36-.23.82.11,1.37-.1-.26.24,0,.15,0,.48.72.06.31-.81,1.08-.71.39,0,.18.09.15.24.34.07.22-.23.46-.23.7-.14.59.34,1.21.26s-.31-.3-.14-.6c.09.21.72,0,.76.25.36,0-.16-.33-.3-.37.38-.2,1.08.13,1.53-.22-.28-.41-.54.2-.92.11-.06-.28-.66-.33-.29-.6-.69-.16-.61.32-1.22.22s-.12-.3-.76-.13a4.24,4.24,0,0,1-.77.23A3.45,3.45,0,0,0,83,59.17c-.52.12.42,0,.14.36-.59.38-1.9-.24-2.14.21A1.36,1.36,0,0,0,80,59.49c.28-.64.84.27,1.22-.1-.52-.47-1.23-.79-1.8-1.23-.55.39.39.64.74.73-.07.43-1.18,0-.93.71-.26,0-.39-.1-.45-.25-.27.31-1,.23-1.68.22,0-.25.68,0,.62-.35a10.35,10.35,0,0,0-1.06-.37c-.39,0-.31.4-.32.72-.36-.08-1.11.14-1.22-.14,0-.56.66.16.92-.23-.42-.55-.88.12-1.37-.14,0,.22.18.26.14.48l-1.37,0c-.47-.27,1.09.09.92-.35-.36-.29-1.1.15-1.68.1.81.41-.85.18-1.38.22-.43-.21.78-.08,1.07-.1-.21-.52-1.17-.14-1.52,0a2,2,0,0,0-2-.15c.2.28,1.06.06,1.52.14,0,.26-.54,0-.76.11-.55,0-1.2-.08-1.38.22a8.8,8.8,0,0,0-2.58-.28c-.17,0-.11.24-.31.24-.4,0-.5-.17-.45-.49-1,.37-1.66-.27-2.59,0-.3-.25.07-.23.16-.48-.25,0-.26-.12-.45-.13s-.21.36,0,.36c-.43.47-1.09.19-1.68.34,0,.17,0,.34.14.36a.89.89,0,0,1-.61.05,1,1,0,0,0-.63,0c.26-.25,0-.65-.31-.72.07-.36.3.12.54,0,0-.26-.12-.38-.43-.37-.6.09.12.63-.21.84a3.21,3.21,0,0,0-1.49-.26l-.09-.36c-.7,0-.74.42-1.51.33.06-.31-.35-.28-.44-.36s-.14-.5-.52-.48c-.33.28.69.36.68.84-.49.07-.62-.46-1.15-.38-.17,0,.11.21.27.24-.11.32-.65-.12-1-.14s-.61.21-.93.22-.82-.19-1,0c-.21-.2-.05-.2-.18-.36-.47,0-.19.38-.73.11-.31-.28.28-.13.09-.35-.54-.11-.29.16-.45.22a.48.48,0,0,1,0,.2.24.24,0,0,0,.24.05,2,2,0,0,1,.81.49.66.66,0,0,0-.32,0c0,.09,0,.17,0,.17s-.17-.37-.24-.37c-.29,0-.5.13-.62.79.1.47.27-.18.48.42-.07.32-.19.55-.26.88l-.36-.27c-.17.19,0,.35,0,.57-.09.44-.43.27.11.93.12-.23.43-.63.48.15.28-.05.06-1,.14-1.38.41.27.22.75.23,1.08s0,.86,0,1.16l-.6-.32c0,.57.22.86.59.84v.78c-.16-.11-.18-.3-.36-.41.06.64-.23.77-.14,1.46-.1-.05-.12-.17-.24-.2-.16,1.07,0,1.67-.16,2.71.42.13.57.6.46,1.38.47,0-.12-.86.26-1.21.27.27,0,1.16.1,1.68-.21.05-.23-.12-.24-.31-.13.53-.45,0-.6.29-.12.71.31-.2.36.31.13.69-.54.33-.38,1.06,0,.29.45-.23.6.17-.31.36.22,1.3-.25.91a4.69,4.69,0,0,1,.09,2.14c.57.23.31-.63.38-1.06.47.14.06.66.11,1.07s.3.53.23.92c-.4.14-.39-.22-.35-.62-.26,0-.26.38-.25.76-.31-.09-.42-.21-.6.14.05.2.52-.17.6.32.3.17.43-.65.6-.14,0,.39-.09.18-.24.15a6.73,6.73,0,0,1,0,1.83c-.61,0,.19-.77-.35-.77-.34.31-.09.44-.25.91,0,.34.4,0,.36,0,.41.15-.1.54.47.47-.08.57.29,1,0,1.37.39.35.13,1.74.2,2.9,0,.65.16.71-.14,1.22,0,.17.24.11.24.31-.13,2,.26,3.1-.07,4.72,0,.17.24.11.24.31,0,.37-.22.33-.13.76-.45.15-.38-.33-.59-.47a1.22,1.22,0,0,0,.26-1.37c-.36.08,0,.56-.25.91,0,.08-.33.08-.36.14a6.25,6.25,0,0,0-.13.91c.39.2.1-.49.49-.29.17.24.39,1.17.59.47.16.08.27,1.38-.14,1.22.42.77.09,1.92.07,3.2s.11,3.14.18,4.27c.08.42-.24.3-.25.6a1.62,1.62,0,0,1,0,.76c0,.25.41.24.23.77-.4.28-.23-.26-.35-.47s-.32-.21-.36-.31.36-.85-.11-.76c-.21,0,.08.22,0,.46,0,.06-.6.1-.37.6.29.07-.06-.69.37-.45.14.72-.3,1.62-.27,2.28.43,0,.11-1,.38-1.21.49-.2.38.34.72.32a12.52,12.52,0,0,1-.3,4,5,5,0,0,1,.2,2.9c.45.12.59-.16.61-.6.28.06.11.67.35.77.45,0,0-.43,0-.61,0-.5.16-1,.14-1.67,0-.17-.24-.11-.24-.31a1.85,1.85,0,0,1,.26-1.06c-.06-.35-.19.18-.36-.16.25-1-.16-2.2.17-3.2.41.42.32-.84.73-.9,0-.4-.68.13-.47-.47-.14,0-.11.28-.13.45-.11.48-.15-.27-.11-.46.13-.35.38-.53.38-1.06-.36-.16-.22.33-.25.6-.4,0-.09-.45-.11-.76a13.53,13.53,0,0,1-.09-2.44c.26-.06.23.22.23.46.57-.27,0-.86-.22-1.07.05-1.23.59-1.33.52-2.43-.45-.13-.16.72-.26,1.06-.57-1.17.07-2.68-.07-3.66,0-.11-.24-.29-.24-.31,0-.23.24,0,.24,0,0-.3-.23-.65-.23-.92,0-.59.41-.73.38-1.21,0-.18-.22-.13-.36-.16.16-1.42-.3-2.7.17-3.65,0-.19-.15-.07-.12,0a3.5,3.5,0,0,1,.15-2.28,3.5,3.5,0,0,0-.35-.92,28.58,28.58,0,0,1,.66-4.25c.56-.2.74-.63,1.21-.58a23.75,23.75,0,0,1,0-3.2.88.88,0,0,0-.36-.31,1.2,1.2,0,0,1,.13-.76c0-.36-.33.16-.36.3-.16.69.49.86.1,1.37a2.18,2.18,0,0,1-.34-1.38.41.41,0,0,0-.24.3c-.22-.1,0-.23,0-.3s.14-.4.48-.29c0-.2,0-.41,0-.61a1.23,1.23,0,0,1,.25-.45c0-.28-.38-.3-.23-.77.45,0,.3-.84.73-.9-.14-.47-.46.21-.6-.17s.16-.73.37-.45c-.37-.38.32-1.12-.35-1.07-.43.11.35.72,0,.76s-.18-.66-.23-.92-.23-.27-.23-.33c-.1-.51-.09-1.35.27-1.48-.17-.31.1-.63,0-1a3,3,0,0,0-.35-.74c-.35.26.14.84,0,1.16a1.12,1.12,0,0,1-.34-1.05c0-.34.26-.59.15-1.14.39.18.24.42.47.6-.11-.35-.36-.71-.46-1.1.36.06.1-.35.26-.68-.32-.31.1.63-.37.08,0-.34.15-.65-.22-1,.11,0,.18-.17.3-.2a2.26,2.26,0,0,1,.54.32c0-.1.3-.09-.14-.47.16-.13.77.38.32-.11.4,0,.75.43,1.1.61.19-.1-.44-.23-.56-.6,1,.41,1.3,0,2.08.16.07-.08,0-.27.21-.23,0,.51.34.22.56.61,0-.22.69-.36.4-.59,0-.4.25.14.35.13.27-.11-.24-.32,0-.48a24.59,24.59,0,0,0,3.23-.06c.25,0,.26.13.45.13.4,0,.72-.28,1.22-.22a.78.78,0,0,1,.6.25c.55-.06,1.24-.05,1.83-.09,1.68-.12,3,0,3.79.9-.06.48,0,.88.44,1,0,.21-.27.27-.61.23.33.25-.38.91.44,1-.53.08-.5.61-.78.83-.12.1-.61-.09-.46.23-1.54-.33-3.3-.24-4.87-.43-.25,0-.47-.23-.76-.25s-.79.15-1.22.1c-.26,0-.32-.13-.61-.13a2.61,2.61,0,0,0-.67.14c-.12,0-.15,0-.24-.16-.06,0,0,.24-.1.24s-.3.05-.46,0a1.23,1.23,0,0,1-.23-.25c-.07,0-.06.2-.12.23s-.34-.16-.46-.14-.06.18-.14.23-.35,0-.65-.14c-.13,0-.06.09,0,.24a2.45,2.45,0,0,0-1.31,0c-.29-.18-.37-.49-.7-.6h0c.14.33.46.38.6.66a2.6,2.6,0,0,0,0,1c-.15-.13-.24-.25-.23-.35-.46-.13.3.52.35.54.1.32-.31-.29-.36-.13s.17.22.36.35l0,.38c-.24,0-.15-.08-.48-.25v.18c.07.15.51,0,.48.34s-.17-.08-.48-.16c0,.17-.21,0,0,.25,0,.14.51.21.72.33l0,.36a1.71,1.71,0,0,0-.48-.18c.17.12,0,.31.47.34.1.3-.13.41-.5.49,0,.12.59.25,0,.39.1.42.49-.34.35.47a.41.41,0,0,0,.24-.3c0,.08.36,1.39-.26,1.06,0,.46.43.38.35.92h-.36c.2.1.19.46.35.62,0,.45-.28.56-.49.75.54,0,.28,1.14.34,1.38,0,0,.21-.32.13-.45.36.84-.14,1.88,0,2.89a2.47,2.47,0,0,0-1.1,1c-.1.47.33.3.23.77.45-.44.52.49.72-.14.25.19-.07,1.08.59.78.3,1.78-.1,4.15,0,5.79-.44-.1-.2-.92-.22-1.53a5.52,5.52,0,0,0-.1-1.53c-.17.29-.2.77-.49.9-.09.61.5.39.47.93h-.24A2.41,2.41,0,0,1,56,84.08c0,.17.24.11.24.31v1.07c-.17.37-.24.09-.37.3,0,.6.18,0,.36.31,0,.4-.13,1,.35.77a22.83,22.83,0,0,0-.16,3c-.27-.52,0-1.67-.09-2.44-.18-.18-.29-.45-.59-.47,0,.4,0,.66.35.62-.25.57.08,1,0,1.83-.15-.19-.19-.06-.36,0,.12,1.31.15,2.57.18,4.27-.17.37-.36-.28-.48.14,0,.66.63-.21.47.77-.29.31-.63-.23-.71-.63-.44.1-.2,1,.35.77-.05.29.07.55.12.31,0,3-.27,7.32,0,10.21,0,.17.12.09.12,0,.08.35,0,1,.1,1.68-.39.09-.16-.55-.48-.16s-.09.63-.13.76c-.14.39,0-.55-.23-.77-.15.58-.38,1.05-.5,1.67.55.17.79.73,1.06,1.24-.07.37-.11.78-.49.75.39.71,0,1.58.08,3a.57.57,0,0,1-.48.14c-.06.32.17.29.36.31a16.13,16.13,0,0,0,0,2.44c0,1.35-.32,2.67-.41,3.8,0,.55.23,1.1-.14,1.37,0,.2.21.24.23.46,0,.39-.23.53-.37.75.45,1.18,0,2.78.05,4.72-.29.37-.22-.23-.6-.17,0,.73.74.59.58,1.54-.21-.14-.3-.43-.72-.32-.09.55.49.6.11,1.07-.24-.1-.07-.71-.35-.77-.28.35.4.8.22,1.53-.32,0-.39-.22-.35-.62-.41.28.2.54.11.92-.25,0,0,.67-.25.76.2.41.76,1,.58,1.38-.16-.16-.44-.16-.6-.32s.15-.32.13-.61c-.57-.09-.34.86-.26,1.21-.35,0-.36-.35-.72-.32a2.69,2.69,0,0,0,.47.54c.05.37-.31.39-.49.58,0-.39-.46-2.18.16-2.79-.06-.35-.19.18-.36-.16.06-.65-.09-1.57.15-2,0-.15-.15-.12-.24-.16,0-.89.39-1.49-.09-2.14.36-.41.14-2-.08-2.59.31-.21.29-.86.38-1.36-.46,0-.4.61-.61.9-.48-.21,0-.31,0-.76s-.43-.08-.6-.17a2,2,0,0,0,.58,1.69c-.13,1.92,0,3-.18,4.41-.14-.38-.64-.31-.71-.78-.27.06,0,.81-.25.91.24.06.38,0,.36-.3.37,0,.19.76.22,1.22-.19,0-.46-.08-.48.14-.12.55.58.08.35.77-.39-.27-.29-.28-.6.14.07.26.28.1.24-.15.17,0,0,.46.23.46-.2.36-.33.71-.73.44-.06.62.39.62.22,1.38,0,.58-.52.45-.5,1.06.16.42.29.84.71.51,0,.8.19,1.13.58,1,.09.35-.17.4-.13.71-.26.15-.23-.12-.23-.34-.35.11-.45.46-.61.76.19.51.2.37,0,1-.39.36-.09-.45-.48-.1-.28.12,0,.41.24.2,0,.5.19.65.1,1.3a1.35,1.35,0,0,0,.6-.49c-.16-.09-.11-.56-.1-.94.6-.19.41-.92,1-1.09-.12,1.44.05,3.65-.16,5.23l.25.05c-.37.37-.44.29-.51.2a1.34,1.34,0,0,0,.09-.32c0-1.15,0-2.83.07-4-.24.49-.19,1.15-.62,1.58-.1.55.48-.14.35.46.06.26-.23.36-.25.59-.2.49.22.2.23.23s-.11.27-.12.38.12.13.12.18c0,.38-.12.81-.14,1.19a2.54,2.54,0,0,0,.83-.11c.27,0,.17.1,0,.25.48-.07.1-.26.44-.48.35,0,.08.27.22.37s.42-.43.64-.6c1.08-.07,2.1-.21,3-.19.14,0,.08.23.14.25s.61-.1.82-.11.62.12.8-.11c.07.11.33.08.32.25.74-.35,2,.1,3.32-.19.12.39-.4.24-.47.47a3.92,3.92,0,0,0-.76-.1,3.13,3.13,0,0,0-.68.08c-.26,0-.16.46-.59.35.39.41.86-.23,1.27-.22.15.28,1,0,.9.49.27-.18-.14-.52.32-.72s.39.17.76.13c.16-.36-.33-.22-.6-.25.22-.29,1-.31,1.53-.34a7.07,7.07,0,0,1,1.22,0,1.19,1.19,0,0,1,.45.25c.18,0,.21-.22.31-.24.34-.07.59.28.92-.11.26,0,.28.1.3.24.45,0,.47-.26.92-.23,0,.21-.27.27-.61.23.1.24.46.28.6.49.35,0,.71-.07.62-.47.1.09.9.32.76-.11s-.59.16-1.07,0c.13-.18.49-.17.77-.23-.09-.37-.81-.25-.9-.61a1.13,1.13,0,0,1-1.21-.26c.07-.27.65.47.76-.11,0-.15-.3-.13-.3,0-.49-.29.72-.78-.44-.73.08-.56,1.21.28,1.38-.34a5,5,0,0,0-1.67-.38c-.45.1.19.3,0,.6-.38-.1-.38-.5-.59-.73-.36,0-.63.23-.91,0,.57-.61,1.59-.1,2.6-.32-.07.19-.48.1-.31.48.59.11.26-.52.92-.35a.18.18,0,0,0-.15-.24c.51-.24,1.14-.38,1.24-.94.49-.1.47.2.76.25.68.1.92-.15,1.53-.1q0,.39-.47.35c.44.59,1.62,0,1.66.74.64-.14,0-.69-.29-.85,0-.26.54,0,.76-.11-.46.37.22.53.29.84.76-.2,1.08-.75,2.15-.69.41-.08.29.25.45.37s.15-.12.31-.12c.31-.14-.44-.32.16-.48.33-.05.29.18.3.36a3.51,3.51,0,0,1,1.53-.34c.4.05.42.39,1.06.26,0-.14-.28-.11-.45-.13.46-.35,2.14.08,3.05-.2.31.12.12.62.59.61.23,0-.06-.15,0-.36a12,12,0,0,0,2.44-.09c0,.35.18.57.75.49-.1-.12-.35-.13-.3-.36.3-.14.23.23.3.24.32.08.7-.33,1.07,0-.52.41-1,.08-1.83.21-.36,0-.29.41-.77.35.48-.45-1.11-.12-1.36-.38l-.46.35c-.38-.1-.38-.5-.59-.73-.47.34-.52-.29-1.22-.14-.23.71.92.5.43,1.09-.39-.21-.76-.44-.74-1-.66-.11-.71.32-.32.48a.16.16,0,0,1-.3-.12,1.86,1.86,0,0,1-1.06-.26c-.29-.05-.24.54.14.36-.21.37-.67-.23-.92.11,0,.19.14.21.14.36.26-.16,1,.06.92-.35.61-.11.45.37,1.06.26.08.27-.29.17-.31.36s.27-.12.31-.12c.19,0,.24.26.45.25s.41-.26.77-.23c.21,0,.13-.3.16-.48.62,0,.69.34,1.06.5s.44-.3.62-.47c.35.17.48.5.74.73.31-.48,1.23-.46,2-.57-.15.43.6.18.91.25.47-.06.32-.64,1.08-.46a1.14,1.14,0,0,1-.46.23c0,.28.67.08.76,0-.12-.11-.17-.26-.3-.36-.41-.37-.72-.14-.45-.49l-1.37,0c.28-.41,1,0,1.68-.1a13.37,13.37,0,0,1,2.44,0c-.12.37.15.44.14.72.79.17,1.15,0,1.83.15a.66.66,0,0,1-.62.47c.43.38.68-.42,1.08-.47s.36.43.9.37c.29,0,0-.51-.45-.37.32-.6.54.19.91.25.62-.13.2-.41.47-.71.6.06-.2.51.44.61.09-.29.78-.1.62-.59.46.22,1.31-.12.91.25.41-.07,1.2.17,1.37-.1.27.09,0,.22,0,.36.49.11.22-.39.47-.47.24.45.42-.2,1.22,0-.1.25-.33.38-.47.59-2.87-.18-4,.35-6.56.39-.21,0,0,.21.15.24a8.16,8.16,0,0,1-1.53.22c-.13,0-.26-.24-.45-.25s-.37.1-.31.12c-.24-.06.21-.34-.6-.25.27-.74,1.06-.17,1.53-.34a5.67,5.67,0,0,0-2.73-.76.5.5,0,0,0,.16-.36c-.62.11-.36.58-.17,1,.67.14.51-.4,1.07-.35-.09.55-.69,1.09.28,1.21-1.23,0-3,.52-4.42.06-.47.35-1.56.19-2.44.21-.29,0-.13.46-.62.35a1.38,1.38,0,0,1-.44-.85c-.73.1-.58,0-1.53.1-.07.25.1.32.14.48.25-.25.85-.2,1.08-.47.91.78-.64,1-1.39.82a.93.93,0,0,0,.16-.24c-.07,0-.9,0-.77.23a29.79,29.79,0,0,0-4.12.18c-.93.1-1.93-.11-2.74,0-.39,0-.89.3-1.38.34s-1.19,0-1.53.34c.08.41.87.28.9.73.68-.22,1.8-.13,2,.39.16-.44.64-.62,1.24-.7.13-.34-.21-.31-.14-.6.93-.13.47.67.28,1,.14.08.77,0,1.22.14.29,0-.23-.45.17-.6-.06-.22-.73.4-1.07,0,.15-.16.42-.23.47-.47,1.11.17,2.42,0,4.11.06.48.25-.95-.05-.77.35,0,.31.51.25.91.25s.13-.46.62-.35c-.37.35.19.46.45.37s0-.54.31-.12a.79.79,0,0,0,1.06.25c-.15-.24-.67-.2-.59-.61.48-.05.39.33.75.37.12,0,.15-.12.31-.12.11-.32-.31-.24-.45-.37s.45-.11.46-.11c.35-.08.36-.21.62-.23.68-.07,1.6.08,2.44,0-.39.32-.59.09-1.22.1,0,.31.5.25.91.25,0,.35.34.45.59.61.5-.2-.39-.32-.14-.72.89-.08.6.73,1,1a4.23,4.23,0,0,1,1.37.26c.28,0,.1-.41.32-.48.78-.09.62.55,1.52.38-.1.55.56.52.43,1.09-.52-.33-1.08.12-1.38.34,0,.16.38.1.61.13a.58.58,0,0,0-.16.48q-.5,0-.45-.37c-.22-.07-.38.46-.46.11s-.13-.28.31-.24a.41.41,0,0,1,.17-.72c-.2-.35-.53.21-.92.11,0-.28-.23-.45-.13-.84-.46,0-.16.6-.62.59-.05.32.59.1.45.49-.22-.07-.79.13-.76-.13-.25.16-.38.42-.92.35.27-.39.2-.74-.6-.61-.4-.28.41-.32,0-.6a.71.71,0,0,1-.77.23c.06-.2-.11-.23-.3-.24.1-.27.32-.72,0-1-.27.1-.21.48-.77.35-.19-.48.51-.24.32-.72-.6-.16-.4.32-.62.47-.29-.05,0-.55-.6-.37-.09.13-.06.45-.47.59.12.28.38-.33.92-.11-.24.32.34.23.45.37s0,.27,0,.36.38.12.3.37a1.21,1.21,0,0,1-.76.11c.06-.16.27-.19.31-.36a.84.84,0,0,0-.77.23c.06.58.77.47,1.36.38.15.36-.34.21-.61.23.28.31.43.57,0,.84,0,.13.3.09.3.24.38,0,.52-.44.92-.11-.13.53-1.38.28-2.29.33a5,5,0,0,1-1.37.1c0-.09.47-.19.61-.11-.48-.26-.52.1-.92.11-.23,0-.43-.25-.45-.25-.27,0-.48.3-.77.35s-.34-.13-.61-.13c-.5,0-1.16.29-1.52,0,.13-.61.74-.84,1.54-.58,0-.4-.68-.35-1.21-.38s-.18.18-.16.48c-.3,0-.48,0-.46.23-.27,0-.76-.13-.61.23s.57-.18.76.13c-.72.3-1.57,0-2.44.09-.19,0-.38.22-.61.23-.67,0-1.6.07-2.29.09a20.25,20.25,0,0,1-3.2,0s0-.22,0-.24-.42.22-.61.11c.34-.79-.33.22-1.07,0-.18,0-.13.22-.16.36-.62,0-1.47.1-1.67-.26-.48-.07-.35.36-.92.23q-.16-.62.62-.47c0-.37-.45-.36-.91-.37-.12.37.15.44.14.72L61,145.4l-1.73.05-4,0c-2.65,0-5.28,0-7.84-.07l.18-10.36v-2c0-.54,0-1.08,0-1.68,0-.25-.13-.27-.11-.46,0-.52.14-1.52.15-2.43a13.93,13.93,0,0,1-.1-1.53,26.57,26.57,0,0,0,.06-4.11,4.32,4.32,0,0,1,0-2.59,3.18,3.18,0,0,1,0-2c-.12.1-.13.35-.36.3.19-1.13,0-2,0-3.35.16.06.19.27.36.31.14-.62-.41-.4-.47-.77s.53-.08.6,0c-.05-.43-.28-.65-.35-1.07.2-.48,0-.79,0-1.37,0-.27.14-.51.13-.76a5.1,5.1,0,0,1-.21-1.83c0-.22.24-.39.25-.45,0-.26-.41-.41,0-.76-.07-.52-.4-1.75-.45-2.45a1.83,1.83,0,0,1,.13-.61c0-.27-.13-.32-.11-.61s.22-.31.25-.45-.12-.28-.11-.46a15.12,15.12,0,0,0,.15-2.28c0-.27-.2-.45-.23-.77a1.13,1.13,0,0,0,.25-.45c-.23-.31-.12-.93-.1-1.37s-.21-.72-.22-1.07.14-.32.13-.61l-.19-3.51c0-.25.13-.26.13-.45,0-1-.26-2-.2-2.59,0-.33.16-.22.25-.45A22.64,22.64,0,0,1,47.25,88c.12-.1.13-.35.37-.3,0-.18-.22-.13-.36-.16.08-1-.53-1.71,0-2.44-.08-.54,0-.55-.1-1.22.15-.17.22-.43.6-.29,0-.68-.27-.2-.47-.47-.1-.7.31-.73.26-1.36,0-.28-.41-.1-.48-.32a24.83,24.83,0,0,0,0-2.89c0-.32.24-.69.25-1.06,0-.94-.42-2.63.17-3.2a.88.88,0,0,0-.36-.31c.32-1-.29-1.61,0-2.74-.52-.25-.23-.6-.34-1.23-.13-.06-.36.24-.37.3s.22.28.23.46-.16.29-.13.45.22.41.23.61a8.86,8.86,0,0,1-.13.91,6.54,6.54,0,0,1,0,1.52,2,2,0,0,1-.25.45,9.77,9.77,0,0,1,.1,1.07c0,.5,0,.58,0,1.22s-.06,1.29,0,2.13c-.2,0-.21-.15-.36-.16,0,.46.06,1-.37.91,0,.18.22.13.36.16s.06-.54.13-.76c.43.46.29,1.52.09,2.29-.16.38.47.49.11.61-.25.31-.23-.07-.36-.31s-.26,0-.24-.31c0-.12.13-.15.12-.3.14,0,.1.28.11.46.33-.48-.07-1,.14-1.52-.66-.24,0,1.19-.73.9.17.85.73,1.12.45,2.14.51.21.16-.72.61-.59a3,3,0,0,1-.26,1.67c-.17-.26-.16-1.13-.59-.62,0,.29.46.13.35.62-.69-.15-.46,1-.14,1.22.21-.14.27-.47.25-.91.47.15.09.77.1,1.22-.46-.36-.48.27-.73.59.46.18.44-.53.72-.14-.08.41-.51.37-.49.9s.18-.24.24-.3a41.4,41.4,0,0,1,.16,5.64c0,.18-.33.83.11,1.07a14.8,14.8,0,0,0-.17,3.2c-.41-.24-.21-1-.22-1.68a12.84,12.84,0,0,0-.09-2.44c-.43,0-.3.41-.72.14.1.56-.22.81,0,1.06a7.77,7.77,0,0,0,.25-.75c.61.36-.09.92,0,1.52.29.07-.06-.69.37-.45-.09,3.51-.19,8.45-.17,12.18,0,.25-.14.51-.13.76a8.83,8.83,0,0,1,.11.92c0,.51-.59,1.12-.14,1.52-.28.05-.17.6-.37.75,0,.19.24.16.24,0,.59,2.69-.23,5.64.25,7.78-.06.22-.11,0-.24,0a5.91,5.91,0,0,1,.21,1.83c-.31,0-.16-.6-.47-.62,0,.48.43,1.16.1,1.53-.52,0,.14-.64-.35-.77-.05-.48.22-.53.14-1.06,0-.12-.12-.15-.12-.31-.27,0-.45,0-.48.29a1,1,0,0,0-.83-.63c-.47.24,0,.89-.26,1.21-.38.08-.1-.49-.11-.61s-.23-.09-.24-.16c-.08-.44,0-1-.1-1.68.22-.25.89-.21,1,.17.26.12.5-.55.25-.6.2-.47.38.32.6.32,0-.33-.09-.49-.35-.47-.05-.48.37-.34.25-.91.48.27-.16,1,.34,1.23,0,.52-.54,1.14-.14,1.67.51.21,0-1.21.49-.6-.29-.63,0-1.06-.34-1.53.05-.29.05-.65.37-.6-.34-.64-.1-1.92,0-3a2.61,2.61,0,0,1-.21-1.83,3.79,3.79,0,0,1-.34-1.38c.22,0,.25.19.48.16,0-.38-.26-.38-.35-.62,0-.52.11-1.23-.1-1.52a.73.73,0,0,0-.25.6c-.21-.29-.1-1-.34-1.23,0-.69.43-.88.5-1.51,0-.23-.15.06-.36,0,0-.65.33-.81.26-1.52-.08-.16-.27-.16-.23-.46-.2-.06-.23.11-.24.3a1.22,1.22,0,0,1,.14-1.21c-.06-.35-.19.18-.36-.16.09-.5.79-.2.62-1.05-.12.1-.13.35-.37.3.23-.51-.28-.57-.11-.92,0,0,.32.17.36,0s-.27-.42-.24-.16c-.34.06.11-.83-.23-.77s.13,1.41-.5,1.21c0,.21.3.13.48.16Zm-.95,16c.38,0,.72-.09.73-.59l-.72,0Zm1.56-.12v-.46c-.36.14-.84.14-.73.9C44.26,118.5,43.86,117.52,44.42,117.79Zm.41-11.57c-.05.45-.7.12-.49.9.38.18.3-.23.48-.29C45,106.94,45,106.11,44.83,106.22ZM85,143.12c.35-.16,1-.09.93-.59-.49-.11-.32.31-.62.35,0-.3,0-.58-.29-.6Zm-7.15-.34h-.46c.1.37-.17.43-.17.72C77.74,143.54,77.65,143.06,77.81,142.78Zm.28,1.09c-.33.35-.17.57-.78.83C77.84,144.68,78.78,144.12,78.09,143.86Zm2.76-.56c0,.36-.66.68.14.72-.15-.45.33-.38.47-.59C81.16,143.45,81.12,143.29,80.84,143.3Zm-.14-.72c0-.17.25-.2.31-.36-.21,0-.29-.17-.61-.13C80.37,142.37,80.44,142.55,80.71,142.58Zm-.79,1.31c-.05.16-.22.23-.16.48a1,1,0,0,1,.61.13C80.4,144.15,80.39,143.84,79.92,143.89Zm-2.86-1.6c.47.32,1-.11,1.67,0,0,.17.25.21.3.36s-.27.11-.31.24c.37.11.33.54.9.49.31,0,.41-.24.62-.35a1.06,1.06,0,0,0-1-1.1c-.11.24.2.16.3.25s.45.52.14.6c-.37-.11-.65-.29-.59-.73A5.82,5.82,0,0,0,77.06,142.29ZM76.81,140c.44,0,.77,0,.92-.23-.55.21-.45,0-.91-.13Zm-3.17-1.49c.12.1,1.18.35,1.07-.11C74.6,138.17,73.59,138.21,73.64,138.51Zm-1.55,1.3c.77-.07,1.31.51,2,.15.18-.64-.67-.52-.91-.25C72.56,139.76,72.37,139.45,72.09,139.81Zm-2.13,0c.5.4,1.18-.37,1.68,0C71.38,139.16,70.43,139.61,70,139.78Zm-.58-1.33c.69,0,1.47.58,2,0C70.57,138.64,69.86,138.13,69.38,138.45ZM75,143.82c0,.07,0,.14-.16.12-.05.32.2.4.6.37C75.54,144,75.44,143.79,75,143.82Zm-.1-2.16c-.1.47.83.15,1.21.26-.26.39,0,.46.6.49C76.91,141.62,75.41,141.58,74.94,141.66Zm0,.84c.49-.1.47.19.6.37a.74.74,0,0,0,.61-.23c-.6-.05-.66-.22-.29-.48C75.45,142.13,74.71,142.44,74.92,142.5Zm-.19,1.8c-.43-.15-.26-.75-1.05-.62-.17.26.27.25.29.48,0,.05-.36.13-.31.36s.05.3.6.25C74.12,144.1,74.5,144.53,74.73,144.3Zm-3.49-.77c-.15-.73,1.26.21.78-.59.52.1.65-.12.92-.23a6.05,6.05,0,0,0,1.66.62v-.48c-.68,0-1.07-.06-.75-.49-.81,0-1.37.26-2.14.33C71.88,143.23,70.28,143.08,71.24,143.53Zm-1.71,1.66a6.27,6.27,0,0,0,1.53-.46,6.19,6.19,0,0,0,2.13.27.65.65,0,0,0-.14-.6c-.27.14-.89,0-1.07.23.38.21.54-.13.76.13a1,1,0,0,1-1.21-.26c.8-.18.25-.48.78-.71.29,0,.33.14.61.13,0-.34-.45-.29-.44-.61.06-.06.74-.17.31-.24-.51.11-.49.66-1.23.58.39.54-.23.57-.47.59.29,0-.1.47-.32.48.07-.61-1.06-.29-1.2-.74v.6c.4,0,.9-.05.91.25C70,144.87,69.33,144.65,69.53,145.18ZM68.82,143c-.43.09-.39-.17-.76-.13C67.78,143.41,68.85,143.32,68.82,143Zm-.94,1.19c.65.07.2-.32.46-.35s.89.08.92-.23c-.58-.12-1,.18-1.22,0C68.16,143.94,67.82,143.91,67.87,144.2Zm-.93.59c.27,0,.75.35.91,0a.18.18,0,0,1-.15-.24C67.34,144.53,67,144.52,66.95,144.79Zm-1.06-.26c-.5.14-.11-.39-.6-.25-.24,0-.14.38-.61.23-.2.39.49.1.29.48-.45,0-.74-.49-.91,0,.45,0,.46.28.91.25a5.08,5.08,0,0,1,1.69-.58c0-.14,0-.34.16-.36.75-.15-.41-.13-.46.11-.2,0-.45-.49-.61-.13C65.9,144.32,66.1,144.49,65.89,144.53Zm-1.81-.87a1.58,1.58,0,0,0,.91.13c.2-.39-.49-.1-.29-.48.47-.08.55.13.91.13.26-.24,0-.15,0-.48-.46.12-1.22,0-1.38.34C64.95,143.33,64.12,143.53,64.08,143.66Zm-.63.71c-.13-.26-.28-1.12-.74-.73.27,0,.34.21.29.49-.27,0-.76-.13-.61.23a3.53,3.53,0,0,1,1.22.14c.2,0,1.1,0,.61-.11Zm.49-1.56c-.2-.1-1.46-.34-1.06-.13C62.91,142.91,63.76,143.11,63.94,142.82Zm-1.21-.5c.49.16.13-.39.61-.23.24,0,.11.31.45.25v-.48c-.58.08-.72-.16-1.22-.14C62.52,142.1,63.12,142,62.74,142.32Zm-1.25,1.18c-.19.39,1.3.46.91.25C61.79,143.91,62.1,143.36,61.49,143.51Zm-.58-1.09c.43.11.62.4,1.21.38C62.2,142.37,61.24,142.14,60.91,142.42Zm-1.65.34c.34.08,1.17.49,1.34,0-.19,0-.52-.14-.8-.18S59.29,142.56,59.26,142.75Zm-.75,1.19c.4,0,.7.56,1,.25C59.25,144,58.76,143.46,58.51,143.95ZM58.35,145c.37.24,1.5.09,2,.15.17-.48-.86-.06-.78-.49.24,0,.19-.3-.16-.24-.11.17.17.62-.21.6A.57.57,0,0,0,58.35,145Zm-6.43-.2c-.41,0-.36-.21-.94-.13C50.42,145.08,51.79,145,51.92,144.83Zm6.38-2.33c-.11,0-.28,0-.3.12.54.12.5-.34.66-.59h-.53C58,142.34,58.34,142.26,58.3,142.5Zm-1,2.28c-.1.3.18.38.43.49.09-.16.3-.23.27-.48Zm-1.41-2.31c.67.16,1-.18,1.46-.22-.09.32-.48.3-.71.47.34.32.85-.23,1.12-.47-.66-.17-1.21.08-1.47-.39C56.29,142.21,56,142.17,55.93,142.46Zm-.3,1.81c-1.74.1.55.35.7-.11C56,144.16,55.94,144.25,55.64,144.27Zm-2.07-.15-.36.6c-.11.17-1.29.06-.84.23a5.63,5.63,0,0,1,1.69.14c.57-.59-.81-.19-.3-.73.3,0,.44-.13.73-.11-.46.63,1.18,1.09,1.7.38a11.91,11.91,0,0,1-1.48-.14c0-.59.7-.31.82-.71C54.78,143.78,54.41,144.23,53.56,144.12Zm-1.07-1.71c.44-.08.09.24.37.25.44-.17,0-.3.41-.36-.09.21.19,0,.41,0-.18.38-.52.37-.41.6.23,0,.51.05.65-.11-.08,0-.1-.1.08-.12.82-.16.39.38.74.5.21-.48.6-.66.76-1.2-.62.13-.65,0-1.1-.14-.11.15-.22.28-.42.24-.42,0-.11-.38-.74-.25C53,142,52.69,142,52.49,142.41Zm-.44.72c.33.3,0,.43.65.13-.49.45.14.35-.2.72.26.11.86-.39.56-.36-.08.12-.38.15-.31,0l.17-.24c.36-.07.91.16,1.13-.1-.14-.24-.67-.07-1.05,0-.08-.46-.71-.24-1.19-.38C51.44,143.2,51.95,143,52.06,143.13Zm-2.55.94c.22.07.61.07.59.25l-1.16,0a2.26,2.26,0,0,0-.77.6c.89.17,1.43-.37,2.22-.34.31-.24-.1-.23,0-.36a2.05,2.05,0,0,0,.53-.24c0,.05-.22-.11-.22-.12s.56-.27.06-.24C50.53,144.21,49.87,143.76,49.51,144.07Zm.33-1.7a2.08,2.08,0,0,0-.14.86c.26,0,.55,0,.77,0,.32-.41.06-.48-.35-.42A.75.75,0,0,0,49.84,142.37Zm-.55,0,.08-.34c.06-.23.24-.31.25-.66,0-.12.06-.62-.23-.44-.07.33.13.81-.13,1,.11-.84-.29-.21-.35-.37a2.4,2.4,0,0,0,.13-1.06c-.53.45-.27,1.48-.5,2.19-.12.1-.14,0-.24,0a1.52,1.52,0,0,0,0,.87c.45-.15,0-.79.49-.93v.83c.5-.29.06-.78.37-1.14.13-.14.16-.09.17,0S49.3,142.44,49.29,142.35Zm.47-2.76c-.13.89.2.22.23.44.08.54-.3,1.51-.15,1.88,0-.24.29-.38.48-.56-.34-.38-.06-1.11-.09-2.07Zm.3-4.11a.65.65,0,0,0-.36.23c0,.39.18.43.35.5A.63.63,0,0,0,50.06,135.47ZM49,133.93c.07.27-.16,1,.11,1C49.28,134.65,49.33,133.92,49,133.93Zm-.79-3.42c-.2.3,0,.19,0,.61C48.66,131.26,48.67,130.41,48.21,130.52Zm1.2-.13c-.1.35-.49,1.1-.14,1.52C49.35,131.54,49.63,130.64,49.41,130.39Zm1.6-2.86c-.06.24-.38.12-.25.6h.36C51.11,127.92,51.18,127.59,51,127.54Zm-.46-1.23c-.21.51-.13,1.15.46,1.08,0-.09.31-.58,0-.61,0,.09,0,.18-.12.15C51,126.44,50.72,126.44,50.55,126.31Zm.51-2.12c-.57-.07,0,.61,0,.91s-.34,1,.1,1.22A7.53,7.53,0,0,0,51.06,124.18Zm-1.3-1.25c-.17.19-.22.91.11.92C49.8,123.58,50,123,49.76,122.94Zm2.64,8.44c0,.5-.35.57-.26,1.21C52.74,132.62,52.6,131.83,52.4,131.38Zm.14-1.67c.14.51-.48.79-.13,1.06.14-.61.28-.35.48,0C52.85,130.32,52.83,129.85,52.54,129.7Zm1.11-1.8c-.29.14-.76,0-.73.59C53.37,128.57,53.47,128.18,53.65,127.9Zm-.59-.47c-.17.82-.71-.58-.73.44C52.71,128.11,53.28,127.81,53.06,127.43Zm-.42-4.12c0-.18.19-.16.36-.14a1,1,0,0,0-.11-.61C52.59,122.44,52.37,123.19,52.64,123.31Zm1.58-1.18c-.18,0-.44-.07-.48.14.24,0,0,.44-.13.45s-.09-.39-.36-.31a22.34,22.34,0,0,1,.09,2.29c-.07.38-.45.54-.49.9,0-.49-.36-1.35-.59-1.08.39.32.35,1.35.7,1.54,0,0,.08-.49.24-.3-.08.27.34.64,0,.76,0-.18,0-.43-.11-.46-.15.22-.16.62-.37.75-.17-.17-.29-.17-.36.14.37-.11.14.53.6.32,0-.38-.22-.48.13-.61l1.07.48v-.61c-.3-.21-.38.59-.48.14,0-.15,0-.67.13-.61,0,0,.07.42.12.31a3.93,3.93,0,0,0,0-1.37c0-.31.33-.85-.11-.92,0,.73-.41.91-.5,1.51-.37-.45.27-.88.38-1.21,0-.31-.28-1.14,0-1.37.34,0-.16,1,.35.77C53.87,123.07,54.16,122.87,54.21,122.12Zm-2.72-3c-.35.07-1,.53-.62,1.05a.41.41,0,0,1,.25-.3c.16.2.11.66.1,1.07-.37-.18-.3.23-.49.29-.1.53.17.59.1,1.07.37-.1.23-.1.6,0Zm-.42-4.27a4.11,4.11,0,0,0,.1,1.37c-.28,0-.13-.44-.35-.47,0,.12,0,.3-.12.3v.3c.18,0,.44,0,.48.16-.53.2,0,.79,0,1.22h-.36c.37.63-.44,1.6.1,1.68-.09-.64.29-1.12.61-.75a2,2,0,0,0-.34-1.38C51.07,116.53,51.89,115.19,51.07,114.89Zm3.53-3.12c.17.45-.14.56.23.77.16-.36,0-.28.13-.76Zm-2.27-1a1.57,1.57,0,0,0-.13.91C52.58,111.94,52.52,110.81,52.33,110.81Zm-1.08-.18c0,1-.41-.15-.6.29a7.3,7.3,0,0,0,.1,1.68c.15.38.37-.27.48.16a2.76,2.76,0,0,0-.62,1.2.94.94,0,0,0,.71.47c0-.55.05-1.22-.23-.62.07-.53.33-.8.38-1.36C50.92,112.1,51.6,111.1,51.25,110.63Zm-.6-.17c0-.18.14-.09.24,0,0-.41.38-.32.37-.75C51.1,109.41,50.31,110.12,50.66,110.46ZM65,64.08c.18,0,.43,0,.46-.11-.55-.08.42-.6-.29-.49C65,63.59,65.07,63.71,65,64.08ZM58.15,61c.48,0,.75.2,1.05-.1A1.55,1.55,0,0,0,58.15,61ZM56,64c.12-.08.34.13.48.13C56.17,63.77,55.63,63.62,56,64Zm-.15.75c-.28-.41.23-.13-.1-.58C55.61,64.12,55.37,64.4,55.83,64.75Zm-.21,9.42c-.16-.16-.44-.16-.6-.32v.61C55.31,74.49,55.59,74.5,55.62,74.17ZM53,81.12c0-.58.56-.3.37-1.06-.38-.08-.32.52-.6.14C52.74,80.63,52.79,81,53,81.12Zm3,2.51c-.13-.48.19-.37.25-.6-.35,0-.42.28-.61.44-.24,0-.15-.42-.48-.31C55.06,84.06,55.43,83.51,56,83.62Zm-.48,8.67c0-.44,0-.77-.23-.92C55.33,91.95,54.91,92.26,55.48,92.29ZM53,96.2v-.76C52.55,95.28,52.54,96.34,53,96.2Zm1.78,1.26c0-.4.08-.89-.23-.92C54.65,96.86,54.37,97.59,54.81,97.46Zm-.39,2.43c.09-.52-.25-1.27-.47-.92C54.09,99,53.69,100.14,54.41,99.89Zm-1.85,3.46c.36-.1.51-.46.5-1.05C52.41,102,52.58,102.81,52.56,103.35Zm2.36,2.95c.34-.46,0-1,.38-1.51-.32-.1-.15.25-.25.45S54.44,106.13,54.92,106.3Zm-3.52,2.36a2.07,2.07,0,0,0-.7-1.39c0,.42-.36,1.06,0,1.37C50.74,108.3,51.32,108.53,51.4,108.65ZM51,104.83c-.47-.1-.15.83-.26,1.21,0,.21.17.3.11.61q-.47-.15-.37.45c.37.12.24-.41.61-.29-.11.59.19.66.35.92C51.3,106.81,50.79,105.65,51,104.83Zm.24-8.07a.18.18,0,0,1-.24.15,1.19,1.19,0,0,1,0,.76C51.32,97.82,51.28,96.68,51.21,96.77Zm-.2-2.9c0,.35,0,.57.23.61,0-.21.17-.29.13-.61Zm.13-1.06c-.34.17-.77.23-.73.9.43.17.24-.18.48-.29,0,0,.17.23.24,0Zm-.58-10.22c0,.44,0,.77.23.92,0-.45.28-.46.25-.91ZM82.4,61c.05.24-.34.32-.77.47.3,0,.19.33.6.25C82.32,61.53,83,60.93,82.4,61Zm3.36-.19a.18.18,0,0,1-.15-.24c-.51-.09-.5.24-.77.35C85.11,60.82,85.73,61,85.75,60.77ZM133.6,84c-.08-.38.54-.61.13-.91C133.65,83.22,133.25,83.75,133.6,84Zm-.87,2.26c0-.27.12-.35.36-.3.07-.48-.21-.54-.1-1.07-.21,0-.54.73-.49.9s.3,0,.24.16C132.55,85.93,132.33,86.34,132.73,86.24Zm.68,2.61c.3.07.49-.78.25-.91A4,4,0,0,0,133.41,88.84Zm.44,45c-.1.58.57.6.48,0Zm-.18-4.12c-.37,0-.36.45-.37.91C133.73,130.68,133.67,130.14,133.67,129.67Zm9.15-1.62c-.2.2-.76-.07-.73.44a.66.66,0,0,0,.6.17C142.67,128.37,142.84,128.33,142.82,128.06Zm.3-4c-.24-.05-.24.2-.36.3-.29-.1-.61-.32-.6.29a.49.49,0,0,0,.36-.14c0,.33.09.49.35.46C142.78,124.48,143,124.37,143.12,124.1ZM132,123.39c.1.42-.27,1.42.22,1.38s-.27-.23-.11-.61c.15,0,.28,0,.24-.3C131.88,124.08,132.25,123.33,132,123.39Zm10.22-.68c0,.38.24,1,.59.78,0-.58-.74-.89-.34-1.53C142.09,121.81,142.16,122.44,142.18,122.71Zm-.57-1.84c.26.23.27.77.71.78C142.46,120.95,141.82,120.21,141.61,120.87Zm-9.48-9.36c0-.36.42-.27.37-.75C132.18,110.66,131.88,111.37,132.13,111.51Zm3.41-11.35H136v-.46C135.71,99.67,135.5,99.76,135.53,100.16ZM135.21,81c0,.45.09,1.47.22,1.22C135.33,81.89,135.37,80.67,135.21,81Zm.87-2c-.07.37-.47.31-.37.91C136,79.9,136.37,79.25,136.07,79Zm-1.66-1.41c.5.06.09-.88,0-1.07C134.36,76.87,134.18,77.3,134.41,77.59ZM135.69,72c.08.41-.25.29-.37.45a1.91,1.91,0,0,0,.22,1.38c-.17,0-.14.33-.25.45a5.62,5.62,0,0,1,.08,2.9c.22-.14.06.87.24.31,0-.29-.13-.34-.11-.61.29,0,.43-.59.49-.9s-.12-.39-.11-.76.25-.86.26-1.21c0-.2-.15-.21-.11-.46C136.09,73.11,136.2,72,135.69,72ZM131,57.45c.35.05.52.34.84.38s.62-.2.94-.23c.17,0,0,.12.06.12s.24-.12.25-.12a3.15,3.15,0,0,0,1.84-.46,17.83,17.83,0,0,0-2.59.21C131.88,57.37,131.48,56.94,131,57.45Zm-21.51,4.62c.36,0,.62.24.91,0C110.55,61.65,109.4,61.8,109.49,62.07Zm2.76-.8c-.57-.25-.62.54-.32.6C111.83,61.5,112.46,61.73,112.25,61.27Zm-.75-.61c.36,0,.27.42.75.37C113.06,60.73,111.79,60.07,111.5,60.66Zm18.91-2.73c.24-.35-.14-.37.09-.73.14,0,.32,0,.39-.12C130,57.11,129.51,57.89,130.41,57.93Zm-8.51-5.77c.29.23.94.05,1.22-.1C122.52,52.09,122.2,51.76,121.9,52.16Zm-4.12.18c.58-.25.56.16,1.06.26,0-.3.29-.37,0-.6C118.6,52.19,117.75,51.9,117.79,52.34Zm-8.69.24c.19.17.74.2.76-.11C109.67,52.3,109.12,52.27,109.1,52.58Zm.62,6.38c.53.24.68,0,1.22-.1-.16.48.57.12.61.13.32,0,.38.35.75.37-.1-.53.84-.21.93-.59.27,0,.77-.11.6.25-.48.05-.62-.29-.76.11a1.16,1.16,0,0,0,.76.13c.28-.05,1.29-.84,1.38-.22-.08,0-.18.09,0,.12.2-.34.88.54,1.07-.11-.09-.17-.59,0-.6-.25.73,0,1.27.33,1.68-.1.12,0,.24.34.3.37s1,0,1.07,0,0,.24,0,.24c.3,0,.62-.23.92-.11,0,.14,0,.34.14.36.34-.25,0-.39-.14-.6.63-.11.18-.48.93-.59.3,0,.19.33.6.25.11-.2.41-.21.61-.23a10.63,10.63,0,0,1,3,0c.13-.17.23-.38.6-.35,1.6-.1,2.39-.15,4.1-.18.53-.86-1.06-.25-1.58-.26-.94,0-1.78-.23-2.62-.28,0,.21-.14.31-.33.36a9.44,9.44,0,0,0-3.21.19c-.09-.26.44-.38-.14-.36-.18.22-.59.25-.77.47-1.12-.11-2.2.17-2.74-.16a2.18,2.18,0,0,1-1.68,0c.17.59-.78.26-1.08.46.05-.24.42-.23.47-.47-.52.21-.73,0-1.37,0-.25.47.66.05.6.37s-.73,0-1.37.1c0,.15-.05.28-.31.24.31-.38-.05-.09-.45-.13-.64-.06-1.13-.1-1.38.22a.58.58,0,0,1,.16-.48c-.56-.14-.5.25-.77.35-1-.1-1.89-.09-2.12-.39,0-.14.28-.27,0-.36-.23.14-.25.45-.47.59-.41,0-.7-.51-.91,0,.65.17,1.17-.09,1.37.26a6.37,6.37,0,0,1-1.07.22c-.65.13-.22-.06-.76-.13C106.21,59.46,109.77,59.27,109.71,59Zm-7.17.5c.12-.41-.52-.44-.76-.25C101.67,59.61,102.31,59.64,102.54,59.45Zm-4.63,2.46c.44,0,1-.05,1.22.14-.1-.21-.54-.75-.75-.49.09,0,.18,0,.15.12A.74.74,0,0,0,97.91,61.91Zm-1-1.22a.72.72,0,0,0,.92-.11A.72.72,0,0,0,96.88,60.69Zm-.44-.61c0,.48.38.32.76.25C97.35,59.93,96.72,60.14,96.43,60.08Zm-.3-6.85c.43.32.74-.21,1.07-.34C96.67,52.85,96.29,53,96.13,53.23Zm-.29-.72c.08-.37-.32-.39-.75-.37C95,52.51,95.41,52.53,95.84,52.51Zm-2.15.69c.38,0,.74,0,.77-.23C94.24,52.78,93.6,52.78,93.7,53.2Zm-1.81,5.86c.57.18.3-.33.77-.23.3.11,1.52.57,1.67,0-.55-.11-1.16.17-1.37-.14,0,.06.48-.09.16-.12C92.85,58.87,91.75,58.46,91.89,59.06Zm-.17-5.89c.43-.09.39.17.76.13a.57.57,0,0,0-.14-.48C92,52.79,91.85,53,91.72,53.17Zm-4.56,6.18c.77-.28,1.22.33,1.53-.1-.46-.12-.46-.59-1.05-.62-.18.18-.18.3,0,.48A.43.43,0,0,0,87.16,59.35Zm-1.5-.86c.4,0,.5-.16.47-.47C85.71,58,85.38,58.28,85.65,58.49Zm-8.37-.24a.18.18,0,0,1,.15.24c.43.13,1-.18,1.07,0s-.67,0-.62.35c.54.24.56,0,1.07-.1-.22-.37.06-.47-.14-.72A7.08,7.08,0,0,1,77.28,58.25Zm-9.16.83c.29,0,.33.14.61.13-.12-.34.22-.31.17-.6C68.45,58.61,68.32,58.88,68.12,59.08Zm-2.13,0c.34.1.58.42.91.25a.49.49,0,0,0-.14-.36c.53-.36.93.28,1.22,0-.15-.36-1-.2-1.36-.38,0,.18,0,.44-.16.48,0-.22-.51-.08-.6-.25C64.86,59.14,65.48,58.91,66,59.05Zm-23-2c0-1.06.22-1.21-.1-2.09,0,.28-.14,0-.24-.2C42.79,55.75,42.19,56.17,42.94,57Zm.24.66c.12.08.15-.33,0-.49-.12.43-.48.19-.49.94C43.08,58.59,42.95,57.64,43.18,57.69ZM42.91,61c.17-.27.13-1.44-.23-1.64C42.88,60.2,42.48,60.51,42.91,61Zm4.16,5.46a3.78,3.78,0,0,0-.35-1.42A1.28,1.28,0,0,0,47.07,66.5ZM43,67.09c.07-.94.16-1.11-.23-1.55A1.48,1.48,0,0,0,43,67.09Zm3.34,10.83a1.6,1.6,0,0,0-.11-.92.5.5,0,0,0-.49.29C46.24,77.11,46.09,77.74,46.31,77.92Zm-.25.91c.07-.09.49-.45.13-.61-.55.38-.07-.39-.23-.61C45.24,77.64,45.79,78.66,46.06,78.83Zm-2,6.35c.17-.2.24-1.06-.1-1.07C44.21,84.52,43.75,84.88,44,85.18Zm0,5.79a.43.43,0,0,1-.23-.46c-.38-.08-.49.18-.61.44.22,0,.28.16.23.46C43.85,91.49,44,91.23,44.08,91Zm-.62,1.36a2.07,2.07,0,0,0,.73-.44C43.87,91.92,43.31,91.65,43.46,92.32Zm2.4.06c-.18-.58.06-1.67-.45-1.84-.18.26.07.18.11.46C45.6,91.47,45.35,92.42,45.87,92.38Zm-1,5.16c.13.29.16.7.47.77-.09-.43.17-.39.13-.76Zm-.71-.78A1.21,1.21,0,0,0,44,96c-.27-.13-.81.15-.48.29C43.67,95.94,44,96.59,44.12,96.76Zm-.39,2.43c-.09-.38.25-1.31-.22-1.22C43.6,98.35,43.25,99.27,43.73,99.19Zm.12,0c.51,0,.13-1.27.27-1.82-.23,0-.08-.51-.35-.47C43.78,97.93,44.06,98.14,43.85,99.19ZM118.7,59c.1-.33.43-.46.92-.47a.43.43,0,0,1-.46.23c0,.1.06.11.15.12C119.26,59,118.93,58.94,118.7,59ZM79.37,141.12c-.1.39-.58.16-.92.11C78.61,140.89,79.07,141.08,79.37,141.12Zm-16-81.62a3.1,3.1,0,0,1-2.14.09c0-.51.23,0,.46,0C62.13,59.32,62.94,59.47,63.39,59.5ZM50.93,65.87A8.17,8.17,0,0,1,51,67.59,3.26,3.26,0,0,1,50.93,65.87Zm14.88,81.79c-.24.65-1.37.28-2,.21-.42,0-1.13.21-1.21-.26A10.43,10.43,0,0,0,65.81,147.65ZM84,143.95c-.27,0-.32.14-.61.11a2.53,2.53,0,0,1-.28-1C83.6,143.25,84,143.47,84,143.95Zm-15.18,4.11c-.37.27-1.37,0-2,.09C67.32,147.84,68.28,148.07,68.85,148.06Zm-15.33-.67,3.61,0a9.35,9.35,0,0,1-3.07.16,24.64,24.64,0,0,0-3.58-.11C50.19,147.27,52.62,147.38,53.52,147.39Zm31.41-2.82-1.52,0C83.7,144.46,84.86,144,84.93,144.56Zm4.27-.3c-.22.29-.53.2-.92.11C88.5,144.08,88.81,144.17,89.2,144.26Zm-2.44.21c-.59.24-.94,0-1.52-.14a1.87,1.87,0,0,1,1.22-.22A.34.34,0,0,0,86.76,144.47Zm-14.41-2.85c-.63-.15-.6.24-1.07.23-.35-.73-1,.06-1.37-.14a.5.5,0,0,0,.16-.36c.31.08,1-.13,1.06.14C71.47,141.38,72.39,141,72.35,141.62ZM130.83,67.9a5.16,5.16,0,0,1,0-1.89,4.26,4.26,0,0,1,.2,1.7C131.11,67.86,131,67.88,130.83,67.9ZM81.42,50.62l1.07,0C82.45,50.83,81.34,51.1,81.42,50.62ZM142.57,95.3c.2,0,.35.64.35.92s-.1.85-.37.75C142.72,96.31,142.52,96.12,142.57,95.3ZM88.88,50.61a4.55,4.55,0,0,0,1.67.14c.61,0,1.45-.18,1.52.26C91.08,50.82,89.13,51.36,88.88,50.61Zm39.43.66c-.75-.42,1.93-.12,2.38-.34,0,.14.42.1.71.13C130.84,51.56,128.73,51.07,128.31,51.27Zm-30,.67c.39,0,.78,0,.75.37C98.61,52.33,98.22,52.32,98.29,51.94Zm-10.51-.27c-.06-.34.83.11.77-.23.12.3,1.19-.12,1.06.38A11.58,11.58,0,0,0,87.79,51.67Zm-4.87-.07c.7-.06.84.31,1.36.38C84.25,52,82.73,52.14,82.92,51.6Zm5.32.56c.5,0,1.08,0,1.06.37C89,52.33,88.18,52.6,88.24,52.16Zm2,.39c.12-.41-.62-.16-.44-.61.51,0,.51.4,1.06.38C90.78,52.53,90.55,52.59,90.21,52.55Zm40.87,22.68c-.41-.28-.21-1.16-.22-1.68,0-1.42,0-2.55.05-3.81,0-.63-.43-1.47.14-1.67-.28,1.2.08,2.51.07,3.8C131.12,72.87,131,74,131.08,75.23Zm-.17-10.77a1.55,1.55,0,0,1,0-.92C131.28,63.52,131.08,64.08,130.91,64.46Zm-2.66-2.69a1.6,1.6,0,0,1-.76.23C127.62,61.54,128,61.85,128.25,61.77Zm2.81,1.49c-.47.38-.2-.8-.09-1.11C131.23,62.11,131,63,131.06,63.26Zm.22,23.4c-.3-.48-.13-.86-.1-1.53C131.45,85.35,131.21,86.2,131.28,86.66Zm.43,12.2c-.39-.17-.09-.55-.11-.92-.07-1.31-.17-3.15-.18-4.42.67.23.21,1,.22,1.38C131.67,96,131.74,97.11,131.71,98.86Zm-.65-21.65c-.4-.2-.28-1.84,0-1.68C130.92,76,131.14,76.45,131.05,77.21Zm.25,7.62c-.33,0-.28-.73-.11-.92C131.46,83.94,131.24,84.56,131.31,84.83Zm-63.76-34c.32-.27,1.27,0,1.83-.09C69.06,51,68.11,50.72,67.55,50.78ZM43.87,123c-.2-.21-.18-.68-.35-.92a.41.41,0,0,0-.24.3c-.44-.25.28-.22.13-.61C43.65,122,44,122.63,43.87,123Zm-.29,3.65c-.61-.14-.19-.74-.1-1.22C43.74,125.5,43.51,126.24,43.58,126.6Zm-1.37-5.06c0-.45,0-.93.37-.91C42.31,120.74,42.68,121.7,42.21,121.54Zm.31,3.51c-.33-.24,0-.91.14-1.06,0-.38-.22-.48,0-.76C43,123.74,42.62,124.62,42.52,125.06Zm.65-3.34c-.27-.14,0-.49-.11-.76,0-.1-.23-.12-.24-.16-.05-.24.15-.27.13-.45s-.49-.43-.35-.92c.36-.15.21.34.23.61.38-.07.49.37.6-.14.42.2-.12.31-.13.45s.2,0,.24.16-.29.62-.14,1.06A.18.18,0,0,0,43.17,121.72Zm0-8.53c.05-.76-.39-.92-.21-1.83.26.08.23-.21.25-.45a1.38,1.38,0,0,1,.09,1.83c.3,0,.38-.28.6,0-.08-.67-.06-2.42.64-2.58,0,.64-.34.89-.38,1.51,0,.18.34.53.36.16.38,1-.18,2.67.07,3.51-.44-.27-.34-1.07-.46-1.38-.26-.12-.5.55-.25.6-.31.56-.24-.58-.23-.92.22-.28.35.07.6.17a6.46,6.46,0,0,1,.14-1.37c-.46-.14-.28.48-.37.6s-.19-.23-.24-.16,0,.57-.37.45C43.4,113.2,43.26,113.22,43.17,113.19Zm-1.8,8.49a10.19,10.19,0,0,0-.58-1.69c-.11-.4.21-.21,0-.61a11.57,11.57,0,0,1-.55-3.82c.16-.15.16-.51.37-.6.55,0,.31.88.83.48.18.54-.07.68.1,1.22.51,0,.33-.91.38-1.51.22,0,.25.19.48.16-.46.76-.09,1.78-.16,2.89-.26.07-.23-.22-.23-.46s-.36-.46-.59-.62c-.36.54.09.48.23.77,0,1.21-.43,2.26,0,3.2A.73.73,0,0,0,41.37,121.68Zm-.2-2.9c.17,0,.14-.33.25-.45-.48-.11-.35.57-.38,1.06C41.06,120.42,41.23,119.21,41.17,118.78Zm1.74-4.23c.13,0,.08.3.24.31s.06-.64.13-.91c-.12,0-.1.18-.12.3-.38.07-.53-.43-.48.29-.31-.34-.19-.45-.11-.92,0-.12.15.33.12.31.11.06,0-.87,0-1.07.26-.06.23.22.23.46a2.65,2.65,0,0,1,.69,2.15.5.5,0,0,0-.36-.16c.15.31.58.29.47.92-.31-.05-.52,0-.49.45-.7-.17-.42-1-.58-1.54.33,0,.24.26.48,0C43.09,114.93,42.76,115,42.91,114.55Zm1.5,12.53c-.17,0,0-.46-.23-.46,0-.4,0-.88,0-1.22,0-.53,0-1.18.38-1.21,0,.37-.22.33-.13.76h.36c.41-.43.06-.88.14-1.67.46-.16.18.48.23.77s.21.53.23.77c.08.77,0,1.59.09,2.13-.29.37-.22-.23-.6-.17.49-.13.43-1.28.27-1.82a1,1,0,0,0-.61.9q.47.15.37-.45C45.24,126,44.48,126.49,44.41,127.08ZM43,110.9c-.52-.61.25-.77.14-1.67-.16.66-.42.3-.48-.31.57.1.18-.59.61-.9.09.11.37.65.36,0,.47.16.09.77.1,1.22-.28-.11-.08-.8-.59-.62,0,.15.15.12.24.16l0,1.07c0,.25.57-.23.47.47C43.44,110.6,42.94,109.69,43,110.9Zm.31,20.72c0,.54-.34.37-.13.91C42.67,132.61,43,131.53,43.27,131.62Zm85.87,11.65c.37-.27,1.37,0,2-.09C130.75,143.45,129.75,143.2,129.14,143.27ZM43.5,131.78c-.16-.3-.23-.71-.59-.78,0-.53,0-1.17.38-1.21-.24.31-.11,1,0,1.37.12,0,.1-.19.12-.3A.72.72,0,0,1,43.5,131.78Zm87.93,17.53c0,.21-.27.27-.61.23,0,.33.25.25,0,.48a8,8,0,0,1-1.83.21c-1,.11-2,.29-3.05.32a1.15,1.15,0,0,1-.45-.13c-1.53,0-3.06.34-4.58.42-.27,0-.63-.15-.91-.13s-.43.23-.61.23-.52-.14-.76-.13a28.69,28.69,0,0,1-3.5.07c.13-.34-.21-.31-.14-.6-.61.15,0,.25,0,.6-1.12.1-1.66,0-2.14.33s-.42-.12-.61-.13-.64.38-1.07,0c.16.77-.45.21-.77.47.31.12.41.39.6.61.25-.19-.06-.45.32-.72.48-.05.53.22,1.06.14V152c.51.05.1-.64.78-.71,0,.22-.19.25-.16.48.59.1.8-.43,1.22-.1a2.37,2.37,0,0,1,1.69-.46,1.71,1.71,0,0,1-.92.35,2.61,2.61,0,0,0,.6.37c.33,0-.14-.26-.15-.24.08-.19.27,0,.46-.11s.25-.61.77-.23c.15.32-.33.14-.46.23s0,.44-.32.48c.57.48.91.16,1.52.26,0-.57-.61-.1-.75-.37-.18-.51.51-.31.62-.59.51.12.07.22.14.6.27.22.4.56,1.05.49,0,.43-.57.77-.77.35-.42.1.4.23.14.6s-.71,0-1.07,0a3.47,3.47,0,0,1-.61.11c-.7,0-1.51-.26-2.28-.27-.31,0-.41.12-.61.11-1.09,0-2.44-.22-3.5-.17a7.42,7.42,0,0,1-1.22-.14c-2.56-.24-5.26-.32-7.75-.71-.25,0-.39-.19-.6-.25a7.22,7.22,0,0,0-1.68,0c-.48,0-.68-.22-1.22,0-.48.05-.39-.33-.75-.37-.76.22-1.6-.17-2.44.09-.27,0,0-.47.31-.36-.55-.43-1.37.15-1.23.34-.56-.13-1.27-.13-1.36-.62-.73.54-2-.42-2.59.2-.29.11-.36-.23-.45-.25s-.26.14-.46.11a19.78,19.78,0,0,0-2.73-.4c-.22,0-.75,0-.77.23-.18,0-.12-.22-.14-.36a5.84,5.84,0,0,1-2.13,0c-.15,0-.12.15-.16.24-.56-.22-.87.08-1.21-.26-.34-.07-.22.23-.46.23a5.5,5.5,0,0,0-1.67-.26,12.29,12.29,0,0,0-1.37.1c-.32,0-.63.21-.92.23a25.8,25.8,0,0,1-3.2,0c-.9,0-1.84.41-2.44,0-.26,0-.35.22-.61.23s-.27-.14-.45-.13c-.35,0-.84.22-1.22.22-.86,0-1.68-.22-2.59-.16-.23,0-.27.11-.46.11s-.5-.13-.76-.13-.44.21-.61.23-.28-.12-.45-.13-.32.12-.61.11a29.36,29.36,0,0,0-3.53-.05c-.44,0-.45-.14-.8-.13a10.77,10.77,0,0,1-3.77.09c-1.17.35-2.63,0-4.61.08.15-.23.93-.08,1-.35a2.06,2.06,0,0,0-1.26.35,10.8,10.8,0,0,0-2.6-.14c-.58,0-.55.34-1.07.35-1.87.06-3.5,0-5.08-.08,0-.87,0-1.69,0-2.45,0-.6-.21-.89-.23-1.47-.06-1.69.14-3.59.16-5.3,0-.52-.13-1.08-.11-1.6s.2-.88.25-1.45-.12-.8-.11-1.33c0-1,.06-2.11.11-3.22l.09-1.56.09-.92c.36-.08,0,.57.1,1.09s.55,1.69,0,1.87c-.07,1,.42.61.35,1.55-.21,0-.31.25-.36.59.27-.17.52.78.11,1.57.45.16.2-1,.61-.94.06,1.71,0,2.45.09,3.81.46,0,.21-1.19.73-1.07-.28,1.87.43,2.6-.16,4.26.06.47.18.39.36,0,.16.43-.32,1.14,0,1,0,.6-.32,0-.48.11a13.84,13.84,0,0,1,.27,3.67l.71.07c.11-.12-.21-.1-.36-.12a22.18,22.18,0,0,1,4.36,0c.81.07.9-.42,1.7-.35a2.34,2.34,0,0,0,1.29.25.54.54,0,0,0,.61-.24c.5.06,1.17.29,1.48-.11,0-.27-1.3-.06-1.82-.14.24-.31.21-.52-.41-.49a3.33,3.33,0,0,1-.53.12c.07.12.45.13.24.36-2.64-.15-4.6-.15-6.52-.14,0-2.17,0-4.25.11-7.23.16-.36.19-.18.36-.18a36.4,36.4,0,0,1,0-3.86c0-.24-.24-.1-.24-.4.08-.65.14-1.31.61-1.24-.14-.56-.1-.68-.48-.38.08-.24.28-.27.25-.7.43.06.44.89.71,1.22a4.71,4.71,0,0,0-.14,2c-.43.47-.07-.72-.35-.55-.29.53,0,1.76.35,1-.13.9.25,1.15,0,1.73-.26.22-.23-.21-.23-.55-.32.45-.08,1.46.23,1.2a17.85,17.85,0,0,0,0,3.7c-.07.66-.3,1.16-.38,1.84,0,.22.24-.05.24.24s0,.82,0,1.24a33.6,33.6,0,0,1,5,.15c0,.41-.82.18-1.28.23.49.43,1.75-.14,2.23-.34a50.18,50.18,0,0,0,7.44.19c.14.23.66.09.18.36.71.14.57-.18.92-.23a17.93,17.93,0,0,0,3.71.17c.57,0,1.28-.1,1.83-.09s.79.15,1.22.14c.24,0,.52-.12.76-.11s.35.23.6.25a12,12,0,0,0,1.83-.21c.16,0,.11-.23.31-.24a1.73,1.73,0,0,0,1.06.14c.51,0,.64.28.92-.11.48,0,.5.33,1.06.26,0-.14-.28-.11-.45-.13.17-.47.57-.11.92-.11,1.9,0,3.61-.11,5.94.08.72.06,2,.05,3,0,.27,0,.32.14.61.13.61,0,1.37-.34,1.67.14.14-.28,1.54-.39,1.83-.21.07,0-.35.17-.46.11-.05.21.85.23.61-.11a1.6,1.6,0,0,0,1.21.26c0-.12-.18-.1-.3-.12a11.92,11.92,0,0,1,2.74-.08,3.64,3.64,0,0,0,2.27.51c-.09-.25-.77,0-.6-.49.88.13,1-.31,2-.21a16.24,16.24,0,0,0,1.82.27c0,.14-.28.1-.46.11.32.33,1,0,.62-.35.35,0,.57,0,.6.25.9-.34,2.38,0,3.51-.19-.52.36.64.5.91.25-.09-.44-.78.31-.6-.25,1.46,0,3.24.11,4.26.06,0,.19.14.21.15.36l.46-.35c.66,0,1.34.07,2,0,1.1-.07,2.29.15,3.5.17.28,0,.63-.11.92-.11,1.28,0,3.55.15,5.18.07.5,0,.91-.19,1.38-.22,1-.07,1.93.06,2.89,0,1.21,0,2.39-.18,3.51-.19.27,0,.32.13.61.13s.42-.12.61-.11c.4,0,.83.3,1.22-.1,1.86.07,2.1,0,4,.06,0,.21-.19.25-.16.48l-1.22,0c-.33,0-.08.42-.17.6.34.07.22-.22.46-.23s.14.19.3.24.41-.12.46-.11C131.06,149.08,131.11,149.54,131.43,149.31Zm-83.11-1c-.48,0-.45-.54-1.24-.13C47.55,148.14,47.55,148.71,48.33,148.3Zm-5.41-4.81c.14-.55.16-1.27.26-1.88-.44,0-.73,1.71-.61,1.83C42.63,142.66,42.74,143.73,42.92,143.49ZM41.57,147a3.45,3.45,0,0,0,.26-2.33A7.56,7.56,0,0,0,41.57,147Zm5.09,4.09c-.55-.08-1.94-.33-2.5.1C45.25,151,45.62,151.37,46.66,151.07Zm7.71-2.59c-.2-.26-2.09.11-1.71.23C53,148.45,54.11,148.76,54.37,148.48Zm12.14,2.19a1.09,1.09,0,0,0-1.07.1C65.77,150.84,66.42,151.08,66.51,150.67Zm4.57-.18c0-.29-.41.13-.46.23l1.37,0C72.14,150.31,71.39,150.57,71.08,150.49Zm18.45-.82a.68.68,0,0,0-.77.35C89.15,150,89.55,150,89.53,149.67Zm.79-1.07c-.56.12-1.79-.52-2,.09.58.15.23.06.46-.11C89.29,148.21,90.24,149.4,90.32,148.6Zm3.36-.19c-.29-.22-.94,0-.92.35C93.34,148.87,93.42,148.57,93.67,148.41Zm.3.24c.45,0,.46.28.91.25C95.09,148.51,94.12,148.4,94,148.66Zm6.49,2.86h-.61C99.6,152.06,100.63,151.93,100.46,151.51Zm2.29-.09c-.81.15-.46-.59-1.21-.5,0,.39.52.39.75.61.18.39-.5.09-.32.48C102.49,152,102.55,151.67,102.75,151.42Zm4.85,1.27h.61C108.33,152.24,107.48,152.23,107.59,152.69Zm.94-1.19c-.44,0-.77,0-.92.23a.41.41,0,0,1,.3.24Q108.5,152,108.53,151.51Zm7.9,1.07c.3.24.43.62.9.73.25-.42-.43-.38-.6-.49s0-.2,0-.24-.33-.14-.3-.12c-.2-.1-.4-.05-.61-.13C115.67,152.69,116.16,152.55,116.43,152.58Zm-1.07.34h-.76C114.35,153.28,115.58,153.3,115.36,152.92Zm-1.35-.86c.12.61.79.09,1.06.5,0-.28.44-.13.46-.35C115,152,114.68,152.25,114,152.06Zm-1.24,1.06c.38.16.44-.18.77-.23.16,0,.81.42.76-.11C114,152.6,112.74,152.65,112.76,153.13Zm-2.43-.27c.37-.06.79-.09.77-.47C110.73,152.45,110.32,152.47,110.33,152.85Zm15.62-3.5c-.06-.23,0-.52-.45-.49-.27.25-.35.35-.17.72C125.75,149.68,125.65,149.35,125.95,149.35Zm2.15-.69a.41.41,0,0,1-.3-.24c.16,0,.39-.05.15-.12-.33.27-.52-.11-1.07,0-.06.52.55.33.91.25A.16.16,0,0,0,128.1,148.66ZM44.5,129.52c0-.74-.26-.86-.46-1.53a4.68,4.68,0,0,1,.74-1.05c.43.32.53,1,.7,1.69a1.38,1.38,0,0,1-.46-1.08c-.32-.05-.4.2-.37.6.6.12,1.29,1.93.33,2.14,0-.38.23-.47,0-.76-.56.62.22,1.83-.27,2.28h.48c.1-.57-.14-.73-.1-1.22.69-.29.59,1.45.22,1.53a2,2,0,0,1,.1.61,3.67,3.67,0,0,1-.11.71c-.1-.08-.15-.34-.21-.45s-.12-.25-.26-.28c0-.29.4-.1.37-.45s-.36-.06-.36-.31c-.16,0-.1.38-.13.61-.51-.19-.57-.85-.58-1.38S44.51,130.08,44.5,129.52Zm-1.56.12v-.46c.28.38.23-.22.6-.14C43.55,129.52,43.23,129.56,42.93,129.64Zm.68,2.6a5.07,5.07,0,0,1-.13.95C43.3,133.11,43.24,132,43.62,132.24Z"/><path class="cls-2" d="M176,42.91c-49.69,39.75-77,102.7-77,102.7-11.18-18.22-38.1-32.15-38.1-32.15l7.45-9.26s18.22,7,28.16,21.12c0,0,20.71-47.62,67.91-88.62Z"/><path class="cls-2" d="M175.37,44.09c.24-.06.34-.46-.15-.63l-.63.41Z"/><path class="cls-2" d="M172.92,41.38c-.68,0-1.56.17-1.5.89.83-.28.83,0,1.75-.34.49.17.69.61.5.78.24-.06.63.5,1.07.27a2.2,2.2,0,0,0-2.06-1.23C172.58,41.53,172.82,41.47,172.92,41.38Z"/><path class="cls-2" d="M135.36,64.73l.27-.19A.93.93,0,0,0,135.36,64.73Z"/><path class="cls-2" d="M116.06,89.13c.12-.21.13-.32.08-.37C116,89,116,89.14,116.06,89.13Z"/><path class="cls-2" d="M112.49,93.14l.21-.24C112.58,93,112.49,93.05,112.49,93.14Z"/><path class="cls-2" d="M135.36,64.73l-.7.49C134.78,65.41,135.05,65,135.36,64.73Z"/><path class="cls-2" d="M166.08,39.53a1.3,1.3,0,0,0,.48.06l-.41-.14Z"/><path class="cls-2" d="M144.15,54.18l.17-.19a1.67,1.67,0,0,0-.05-.34Z"/><path class="cls-2" d="M151.47,46.59c-.19.15.15.61.26.85a.75.75,0,0,1,.1-.64A.85.85,0,0,0,151.47,46.59Z"/><path class="cls-2" d="M164.8,36.26l.31.08Z"/><path class="cls-2" d="M138.92,59.63a.43.43,0,0,0-.21-.06A.3.3,0,0,0,138.92,59.63Z"/><path class="cls-2" d="M165,48.85s0,0,.07.07S165,48.79,165,48.85Z"/><path class="cls-2" d="M176.09,43l-.11.13a1.92,1.92,0,0,0,.17.27Z"/><path class="cls-2" d="M106.6,101l0,0C106.72,100.69,106.65,100.82,106.6,101Z"/><path class="cls-2" d="M72.63,123.38c-.54-1,1.7.39.78-.92C73.39,122.72,71.79,122.41,72.63,123.38Z"/><path class="cls-2" d="M165.87,39.34l-.3-.16A1,1,0,0,0,165.87,39.34Z"/><path class="cls-2" d="M73.41,122.46h0l-.1-.13Z"/><path class="cls-2" d="M96.39,119.93a.6.6,0,0,0,.21.13A.87.87,0,0,0,96.39,119.93Z"/><path class="cls-2" d="M104.63,106.48l-.28.32A1.66,1.66,0,0,0,104.63,106.48Z"/><path class="cls-2" d="M94.61,120.41a.66.66,0,0,0-.09-.2.81.81,0,0,0-.24-.24.4.4,0,0,0,0,.12.43.43,0,0,1,.19.11A.36.36,0,0,1,94.61,120.41Z"/><path class="cls-2" d="M88,114.08a1.57,1.57,0,0,0,.06.19l.25.16Z"/><path class="cls-2" d="M145.9,68.77a1.62,1.62,0,0,1,.65,0C146.16,68.63,146.93,67.53,145.9,68.77Z"/><path class="cls-2" d="M166.22,39.25a.34.34,0,0,1-.35.09l.28.11C166.21,39.39,166.26,39.32,166.22,39.25Z"/><path class="cls-2" d="M91.1,123.14s-.82-1.07-.84-1.06C90.5,122.38,90.78,122.78,91.1,123.14Z"/><path class="cls-2" d="M108.63,121.82l.11-.32A.46.46,0,0,0,108.63,121.82Z"/><path class="cls-2" d="M87.31,119.35a2.06,2.06,0,0,0-.31-.8.54.54,0,0,0-.21,0Z"/><path class="cls-2" d="M146.56,68.79h0Z"/><path class="cls-2" d="M152,60.88c-1,1,.08,1,.19,1.47-1,1.33-.92.18-1.58.33-.56.88-.6,1.91-1.15,2.44-.13,0-.26,0-.26-.19-.33,1.16-2.1,2.43-2.38,3.86a.43.43,0,0,1-.25,0,1.62,1.62,0,0,1,.89.52c-.39.47-.39,1.16-.91,1,.26-.27.13-.43.13-.66l-.26.62c-.9,0,.39-.82,0-1.16-.65,1.1-1.17,2.57-1.95,3.17-.65-.29,1.3-1.85,0-1.27l1.17-1c-1.55.16.65-.64-.9-.6-1.44,1.36-1.18,1.89-2.61,3.24,0,.58.52.25.52.83-1.3,2.52-2.7.6-3.3,2.75,0,.7.56,1.4-.7,2.25l-.29-.87c-1.24,1.44.19,1.53-1.46,2.76,0-.46.73-1.32.48-1.15-1.28.63-.23,1-.84,1.75l-.66-.26a29.12,29.12,0,0,0-1.68,2.7c-.53,1-1.07,2-1.68,2.89-.09-.22,0-.66-.51-.36-1.38,2.48-3.7,4.75-5.55,6.78L126.35,94c-.14.19-.47.22-.42-.06-.79.74.27.26.17.81-.31.52-.73.46-.66,0-.65,1.83-2.17,5-3.76,6.27l.06-.42c-1,1.16.06,2.11-1.17,3l.06-.29c-1,1.32-1.91,2.83-2.81,4.21a15.23,15.23,0,0,1-2.81,3.52c.47.85-2,2.61-1.14,3.41-1.49,1.32-1.4.74-3.08,2.86-.41.59.1,1.29-.23,2.12l-.54-.29,0,1.36-1,.19-.28.8c.2-.27.59-.47.72-.34-.42,1.25-1.93,2.53-2.22,2.41l-1,2.94c-.18-.18,0-.67,0-1.1-.24,1.74-.71-.05-.93,1.54.22-.11.27.27.36.36a7.72,7.72,0,0,0-1.94,3.16l-.26-.41c-1.16,2-2.06,4.34-3.19,6.63.59-.73,1.15-.21.88.49l-.72,0c.14.61.57-.59.57.52-.49.82-1,.25-.9-.34l-.32,1.14c-.21,0-.18-.31-.37-.49.07.3-.29.68-.63,1.1s-.21.17-.23.22,0,.07.16.23l-.15-.14a1.43,1.43,0,0,0-.07.41c0,.09,0,.2,0,.31s-.07,0-.12-.08c0,.9-.14.55-.42.92a7,7,0,0,1-.32-1.06s-.05-.12-.11-.21l-.17-.29-.37-.57a12.93,12.93,0,0,0-.83-1.12c-1.07-.83-.61,0-1.26-.21.32-.4-1-1.77,0-1.29-.79-.81-1.3-1.33-1.88-1.88s-1.31-1-2.46-1.9c.07.37.25.67,0,.67-.42-.3-.68-1-.46-1.1l.13.06a14.05,14.05,0,0,1-3.6-3.74c-1.13-1.37-2.22-2.7-3.55-3.06l.14,0-2.41-1.17c-.9-.81.8.14.29-.66-2.77-1-3.51-2.77-5.75-3.61-.61-2.31-5.36-3.44-6.92-5.51l-.06.38c-.72,0-.54-.57-.9-.87-.09.27.42.63,0,.59l-1.35-.7-.91-.5a3.22,3.22,0,0,1-.63-.47,3.52,3.52,0,0,1,.59-.45l.25-.13s.1-.1.17-.16l.22-.23.44-.45L68,109.51l.87-.91.43-.46s0,0,0,0a2.82,2.82,0,0,1-.27-.9,2,2,0,0,1,0-.35c0-.07,0-.12.08-.14s.27.09.41.38a1.59,1.59,0,0,0-.13.31,1.73,1.73,0,0,0-.06.33.28.28,0,0,1,.23-.14,13.06,13.06,0,0,1,1.34.51c.9.37,1.76.84,2.61,1.3a50.51,50.51,0,0,0,5.12,2.66c-.27,0-.38.17-.69,0a2.91,2.91,0,0,0,1.41,1.06c.58.26,1.14.39,1.26.23.46.37-.09.37.1.74.5.66,2,.64,2,1.28,0,.11-.27,0-.41-.06.55.12,1.89,1.47,1.83.74.91,1.1,2.27,1.47,2.86,2.48,1,0,1.58,1.8,2.32,1.35-.71.6,1.24,2.2,2.1,2.6-.4,0,.29.76-.22.75.57.63,1.28,1.36,1.71,1.79s.73.52.72.13a10.42,10.42,0,0,0,1.44,2.44,15.38,15.38,0,0,0,1.47,1.59l.33.32.08.08s.05.07.07,0l.1-.28a8.55,8.55,0,0,1,.4-.95c.27-.52.55-.8.91-.78C99,126,99.5,124.77,100,123.5l.7-1.81.39-1.05c.51-1.36,1-2.68,1.6-3.95.74.51-1.36,2.75-.45,3.09.86-2.5.93-4.2,2.37-6.39.44-.53.15.52.18.8,1-2.46,2.54-4.4,3.34-6.65.07,0,0,.31,0,.55.21-.41.67-.85.29-1l-.14.44c-.89.33-.13-2.21-.35-2.45.6,1.28,1.45-1.84,2.08,0,.09-.3.12-.73-.15-.81.3-.35.51-.39.54.17.66-1.54,0-1.25.8-2.52.17.11.07.41.18.66a4.25,4.25,0,0,1,1-2.68c.06.13.27.09.07.41,1.11-1.87,1.11-3.71,2.77-5.48.33,1.06.69-.52,1.38-.21l.53-1.19-.59.23c.64-.93.74-2.06,1.48-2.73l-.21.87.53-.92c.26-.46.55-.91.55-.91l-.46.41-.45.41c.33-1.16-.85-.44.18-1.55-.11.29.66-.92,1.37-1.14h0a2.94,2.94,0,0,1,.9-1.78c.32,0,.57.62.78.6-.19-.81,1.39-2.25,1.26-3.21a.55.55,0,0,0,.41.51l-.14-.68c.43-.33.55-.34.75-.09,1-1.2-1.06-.16.39-1.41-.06.14,0,.13-.08.42,1.3-1.37,1.93-3.08,3.17-4.3.9.05-.76,1.31.09,1.23.7-1,1.29-2.19,1.92-3.31A17.43,17.43,0,0,1,131,73l-.35.3c-.62-.92,1.54-1.06,1.91-2.32-.13.28.21.68.17.54,1.17-1.16,1.89-2.8,3.29-4.88V67a34.93,34.93,0,0,0,2.56-2.54c0-.41.43-.84-.11-.82a7.63,7.63,0,0,0,3.31-3.28,7.36,7.36,0,0,1,3.09-3.1c-.23.25-.38.76-.2.56l1.48-2c-.47-.18-.42,0-1,.17a2.75,2.75,0,0,1,.75-1.51c-.53,1,.54.5,1.05.34-.16,0-.16-.27-.29-.34,1.47-.36-.52-.8,1.07-1.69l.11.24A5.69,5.69,0,0,1,149,51.46c.59.17-.32.66,0,1,.68-.71.67-2.08,1.68-2.34-.19.4-.62.83-.82,1.23a2.83,2.83,0,0,0,1.69-.87l-.06,0,1.39-1-.42.18c-.1-1.86,1.61-1.95,2.16-3.77-.55,1.76.16.55.49,1.07.42-.18,1-.49,1-.24.23-.9,1.18-.65,1.52-1.91.17.11.63-.55.84-.07.65-.8-.41-.09-.51-.32.71-1.55,3.28-1.89,4.34-4.08,1.27-1.62.82-2.22,2.22-3.77.3.34.18.48,0,.56s-.26.53-.26.51l.23-.09.05,0,.06.05.12.09a2.79,2.79,0,0,0,.43.28,3.53,3.53,0,0,0,1,.3c-.19.09-.17.27,0,.6.68.31.78-.39,1.51.33a2.83,2.83,0,0,1-1,.34c.86.26,1.8.35,2.69.63.05.41-.73.19-1.12.24,1,.35,2.49,1,3,.66l-.49-.48c.34.15,0,.5-.34.45-1,0-1-.76-1-1l.63.2c0-1.32-2.39-1.07-3.52-1.75l.87-.48s-1.52,0-1.46,0c-.12-.31-.22-.89.45-.67a1.2,1.2,0,0,0-.82-.51c-.2,0-.35,0-.75-.52-.09-.13-.06-.16,0-.15l-.46-.11-.36.49c.11-.34-.29-.53.26-.87a5.58,5.58,0,0,0-1.83,1.73c-.38.53-.55.84-1,.83l.07-.13c-1.51,1.75.24.61-.55,2.29l-1.87-.34.24.6c-.19.14-.57.42-.67.18-.37.9.29.1.18.73-1.22.36-2.14,2.29-3,1.76,0,.61,1.05-.47.37.58-1-.54-.89,1.1-2,1.48-.15-.61.75-1.1-.32-.72.19,1.1-1.58,1.28-2.09,2,.48.55-1.15,1.56-2,2.76-.1-.23-2.28,1.64-3.4,2.47l-.06-.11c.35.7-.72,1.64-1.31,2.5-.29-.33-.29-.59-.05-1.13l-.66.71a1.81,1.81,0,0,1-.47,1.15l-.23-.55c-.86,1-1.3,2.34-2.71,3.3.32.41,2,0,1,1.51-.25-.14-.64-.41-.41-.82-.08.13-.2.54-.49.69l.13-.82c-.67.41,0,.55-.43,1-.28-.27-.51.14-.69-.14.08-.14.48-.27.52-.55a3.73,3.73,0,0,1-1.64.91c.21.11.4.36.11.77-.82,1-.64,0-1.29.45,0,.42-.75.85-.32,1.26-.25.28-.5.15-.72.16-.24.68-2,2.4-1,2.24l.14-.1-.05.1h0a9,9,0,0,1-2.14,2.59,13.81,13.81,0,0,0-2.24,2.48l-.15-.13c-.64,1.15-1.71,2.32-2,3.3-.24.3-.85.48-.93.2a4.53,4.53,0,0,1-1.55,2c.34-1-.46.08.44-1-1,.89-1.35,1-1.77,2.37-.12-.68-1.09.38-1.34,1l.83-.5a10.27,10.27,0,0,1-1.16,1.51l-.33-.67c-2.24,1.63-1.79,4.59-4,5.44,0,.84,1.1-1,1.17-.15-.77.93-2.28,1.4-2.51,1.71-1.27,1.14-.11,1.83-1.32,3.1.32,0,1,.15.4,1.33-.77.94-1.66.67-1.39-.08.14-.25.29-.32.35-.27.16-.37.37-.85-.12-.6l.1.26c-.56.35-1.45,1.76-1.56,1.21-.32.89.1.55.58.05-1.15,1.1-1.36,2-2.45,3.22.25-.14.61-.18.47,0-1.55,1.79-.2,1.11-1,2.48-.8.56-.56-.75-1.16.77-.73.69-.64-.17-.59-.6-.4,1.48-1.72,2.15-2.24,2.81l.25-.76a4.7,4.7,0,0,1-.56,1.09l.64-.12c-.31.34-.52.66-.68.55,0,.56.86.12.73,1.12-.52.38-.77,1.68-1.4,1.53,1.18-1.5-.65-.16.11-1.57a2.81,2.81,0,0,1-.62,1c-.09,0-.08-.12,0-.25-1.42,1.26.18,1.09-.8,2.69-.18-.39-.8,0-.89.33.4-.65.69,0,.57.73-.86.89-.5,1.23-.85,1.75l.48-.55c.18.39-.17.88-.5,1.66-.28-.08.23-.75,0-.55.06,1.11-1.6,1.51-1.88,2.85-.51.41-.61-.28-1,.1-.31,1.5-1.22,1.13-1.61,2.67.63-.16.56-.28.46.89l.45-1.19.47-1.18-.18,1.75c.36-.67.52-1.54.81-1.9,0,.86-.1.73.42.61-1.15.55-.63,2-1.62,2.82l-1-.59c-1.33,1.35-1,3.12-2.32,5.08l.53-.58c.14.25,0,.58-.22.94l-.32.57a.9.9,0,0,0-.15.41c-.32-.25-.54-.12-.77-.21.21.24-.26.47.08,1.58a.82.82,0,0,1-.23-.1.94.94,0,0,1-.2-.18.43.43,0,0,0-.11.21s0,.11,0,.17l0,.1,0,0a3.18,3.18,0,0,0-.21.33c-.16.25-.44.35-.83-.25.18-.1.2-.36.25-.54s.13-.31.31-.33c-.15-.2-.25-.44-.35-.15,0-.37-.73,0-.94-.83-.3-.08-.66.13-1.1-.41,0-.11.14-.13.14-.13s-1-.58-.85.14a5.69,5.69,0,0,0-2.16-2.87A7.09,7.09,0,0,1,88,114.27l-3.49-2.33c.13,0,.12-.16.28,0-1.14-1.3-1.49.32-2.82-1.09-.45-1.08,1,.28.66-.26.26-.61-.25-.91-.9-1.21A3.34,3.34,0,0,1,80,108.16l.31.1c-.61-.91-2.32-.83-3.67-1.69,0,0,.12-.06.1-.17-1.28,0-3.2-.74-4.67-1.22.65-.25.75.06.71-.53-.65-.23-.18.83-1.48.37-.2-.4-1.29-1.16-1.42-1.81l.86.35.78.34a1.07,1.07,0,0,0-.55-.58,3.61,3.61,0,0,0-.88-.35,8.23,8.23,0,0,1-1.64-.49l.07-.31L68,102c-.08,0-.16-.08-.22,0l-.14.2c-.18.27-.34.51-.47.74a12.52,12.52,0,0,0-.63,1.22,12.49,12.49,0,0,1-.57,1.14,6.16,6.16,0,0,1-.74,1.07l.32,0c-.12,1.39-.95.48-1.22,1.74l-.83-.22-.76,1.69c-.13.31-.41.8-.63,1.2s-.44.77-.65,1.1a4.27,4.27,0,0,1,.61-1.88l.15-.3.1-.23.19-.44c.12-.29.24-.56.32-.81-.26.31-.59.76-1,1.35a4.42,4.42,0,0,0-.91,1.72,3.22,3.22,0,0,1,.76-1.18,9.39,9.39,0,0,1-1.72,3.64l.24.13c-1.34.16-.2.86,1.27,1.73.36.22.75.43,1.12.66l.55.35.26.18.16.13a2.08,2.08,0,0,1,.82,1.1c2.55.85,4.31,2.93,6.9,4.53-.24-1.59.76.46,1.29-.65.63.34.85.51.86.62l1.36,1.83c.21.59-.71-.17-.82.09,1.22,1,.23.8.87,1.66.09-.48.8-.19,1.42.47l-.67-1.19c2.14.76.92,1.91,3,2.74l-.78-.12c.51.25,1.32.89,2.19,1.44a5,5,0,0,0,2.5,1.06c.06.24,0,.66-.39.41a32.91,32.91,0,0,0,3.44,2.49,8.14,8.14,0,0,1,2.77,2.57L88,136c.41.29,1,.21,1.24.86-.11.06-.36.07-.21.24a3.41,3.41,0,0,1,1.6,1.19L90,138.1a6.94,6.94,0,0,0,2.37,2.19,13,13,0,0,1,2.4,1.82c-.37.26,0,1.09.52,2.26s1.32,2.49,1.86,3.41l-.07.12c.83,1.27,1.61,2.38,2.33,3.31.1.24.15,0,.22-.2l.19-.49.36-1,.67-1.91,1.19-3.54.57-1.62c.18-.5.43-1.14.5-1.39,1.63-1.17,3-5.2,4.83-7.46-.34.31-.57-.38-.42-.87.47-.51.32-1.92,1-1.45l-.12.2c.92-.08,1.4-1.37,1.94-2.3l-.84-.66c1.35-.86,2.11-2.54,2.79-4.08s1.31-2.94,2.29-3.26c.11-.72.53-1.44.64-2.16l.47.32a38,38,0,0,0,2.71-4.35l.1.61c.71-1.09-.53-2.26.07-3.31l.91.14c1.16-2,3.06-3.49,3.64-5.8a.49.49,0,0,1,.08.62c.6-.89,2.74-3.16,1.56-3.48.64.39,1.34-1.93,1.78-3.12l.35.47a4,4,0,0,1,.53-2.7c.26-.24.54,0,.16.3.89-.78.08-1,1.11-2v.63c.71-.95.5-1,.53-1.75.24-.74,1.39-1.77,1.9-1.62a1.46,1.46,0,0,1,.43-1.54c.21,0,.16.31.13.45,1.48-1.36,1.23-2.74,2.48-3.51a.4.4,0,0,0,.4,0,24.3,24.3,0,0,1-1.69,2.13c.42.3,1.24-.66,1.21.57.29-1,.65-2.94,1.58-3.79a.63.63,0,0,1,.24,0l0,.14a1.48,1.48,0,0,0,.4-.68A4.81,4.81,0,0,0,137,87c.43.15,1-1,1.45-1.51-.48-.3.11-.89-.74-.57.09-.05,0,.13-.26.48a1.11,1.11,0,0,0-.11.25v-.06l-.91,1.28a1.74,1.74,0,0,1,.85-1.51,10.87,10.87,0,0,1-.17-1.25c1.16-.2,2.54-1.24,3.06-1.12,1-1.7,2.67-3.67,2.61-5.29.24-.52.63-.3.88-.36-.12.32-.36.6-.35.83.45-1,2-2.57,1.6-3.24,1.16-.83,0,1,1.16-.49v.34a8.13,8.13,0,0,0,3-3.95,7.36,7.36,0,0,1,3.46-4c-.27.15-.4.22-.53.18a39.48,39.48,0,0,0,5-5.2,35.24,35.24,0,0,1,2.47-2.66A18.72,18.72,0,0,1,162.34,57c1.11-.76.88-1.2,1.22-2l.62.24.52-1.46c1.1-1.72,3.41-1.3,4.68-3.59l-.51-.1c.73-.52,2-2,2.19-1.56,0-.12-.05-.51.35-.58l.23.22L173,46.37c1.44-.93.6,1.13,2.52-.42.62-.69,1.41-2.41,1-2.35-.29.23-.85.46-1.07.23l.54-.68c-.47-.82-.56-2-2.57-1.14l-.75,1.39-.65,0,.92-.82c-.8.12-.9.7-1.12,1.22a1,1,0,0,0-.79,0l-.52,1.61c-.37-.16,0-1-.84-.5-.24.75,1,.2.35,1.13-.81.13-.88-.26-1.27.54-.25-.11-.21-.33,0-.63-.37.69-1.4,1.35-1.36,2-.9.09-1.8,1.69-2.31,1a4.7,4.7,0,0,1-.93,1.89c.17-1.62-1.86,1.69-2.4.64,0,1.32-2.09,2.57-2.89,4.06,0-.12,0-.35.17-.41a5.93,5.93,0,0,1-1.65.82c.47.64-.43,1.73-.59,2.63-1.3.27-.19-1.13-.95-1.39.49.41-.88,1.84-.24,1.94-.92.29-.66.37-1.43.24.6.79-.43.69-.47,1.62-1.19.56-.88-.4-1.6.78C151.41,62,152,60.88,152,60.88Zm-19.32,25.6h0l.37-.55Zm-1.59,2.16c.21-.25.46-.57.71-.92a.26.26,0,0,1,.14.45C131.91,88,131.45,88.42,131.08,88.64Zm6.48-2.19c-.19.39-.36.43-.48.41.11-.17.23-.36.38-.63,0,0,0-.06,0-.08A.72.72,0,0,1,137.55,86.45Z"/><path class="cls-2" d="M137.42,85.4a.75.75,0,0,1,.07-.16l-.25.12.05.23Z"/><path class="cls-2" d="M135.67,64.5l0,0a.32.32,0,0,1,.14,0Z"/><polygon class="cls-2" points="109.89 119.09 110.02 119.16 110.03 118.89 109.89 119.09"/><path class="cls-2" d="M147,54.91a.35.35,0,0,0,.24,0S147.08,54.87,147,54.91Z"/><path class="cls-2" d="M151.49,50.48l.78-.49A6.2,6.2,0,0,0,151.49,50.48Z"/><path class="cls-2" d="M155.15,47.27A.72.72,0,0,0,155,47h0Z"/><path class="cls-2" d="M108,108.1a1,1,0,0,0-.07.17C107.84,108.7,108,108.42,108,108.1Z"/><path class="cls-2" d="M119.42,88.08a5.16,5.16,0,0,1-.21.76C119.48,88.53,119.67,88.28,119.42,88.08Z"/><path class="cls-2" d="M91.19,123.26h0l-.1-.11Z"/><path class="cls-2" d="M118.58,89.71a2,2,0,0,0,.63-.87A3.13,3.13,0,0,0,118.58,89.71Z"/><path class="cls-2" d="M169.89,41.63l.2.13a.12.12,0,0,1,.07-.07Z"/><path class="cls-2" d="M170.16,41.7l.26.06C170.31,41.7,170.22,41.66,170.16,41.7Z"/><path class="cls-2" d="M171,41.9l-.55-.13C170.59,41.85,170.78,42,171,41.9Z"/><path class="cls-2" d="M165,38.69l0,.21A.66.66,0,0,0,165,38.69Z"/><path class="cls-2" d="M164.15,39a.73.73,0,0,1,.38-.05c.07,0,.12,0,.18,0a.27.27,0,0,0,.18.08l0-.17c0,.07-.08.05-.15,0l-.11-.13h-.12C164.38,38.74,164.16,38.78,164.15,39Z"/><path class="cls-2" d="M156.73,42.36l1.33-1c-.36,0-.84.08-.32-.47C155.76,41.82,158.4,41,156.73,42.36Z"/><path class="cls-2" d="M152.81,45.67c.56-.7-.23-.22-.28-.34C152.27,45.86,152.2,46,152.81,45.67Z"/><path class="cls-2" d="M128,73.12l-.34-.39C127.23,73.31,127.76,72.86,128,73.12Z"/><polygon class="cls-2" points="125.73 80.32 126.38 79.98 126.2 79.45 125.73 80.32"/><polygon class="cls-2" points="120.29 81.47 120.41 81.18 119.89 82.22 120.29 81.47"/><path class="cls-2" d="M89.57,114.75l-.25.62C89.74,115.6,90.28,115.14,89.57,114.75Z"/><path class="cls-2" d="M65.08,105.91A1.32,1.32,0,0,0,64,107C64.38,106.52,64.95,106.2,65.08,105.91Z"/><polygon class="cls-2" points="110.8 127.75 110.73 128.32 111.06 127.35 110.8 127.75"/></svg>