<svg id="Layer_1" data-name="Layer 1" xmlns="http://www.w3.org/2000/svg" viewBox="0 0 200 200"><defs><style>.cls-1{fill:#fff;}</style></defs><title>true</title><path class="cls-1" d="M172,39.24C109.19,89.48,74.65,169,74.65,169,60.52,146,26.5,128.4,26.5,128.4l9.42-11.7s23,8.9,35.59,26.69c0,0,26.17-60.19,85.83-112Z"/><path class="cls-1" d="M171.37,40.41c.29,0,.36-.45-.25-.69l-.72.37Z"/><path class="cls-1" d="M168.11,37.28c-.82-.08-1.86,0-1.71.78,1-.2,1,.12,2.07-.17.61.24.9.72.68.88.28,0,.82.6,1.32.4a3.39,3.39,0,0,0-2.61-1.52C167.72,37.4,168,37.36,168.11,37.28Z"/><path class="cls-1" d="M120.82,67l.33-.26A1.44,1.44,0,0,0,120.82,67Z"/><path class="cls-1" d="M96.52,97.84c.15-.26.18-.39.14-.44C96.53,97.65,96.43,97.86,96.52,97.84Z"/><path class="cls-1" d="M92.17,103l.26-.3C92.3,102.8,92.18,102.91,92.17,103Z"/><path class="cls-1" d="M120.82,67l-.85.66C120.08,67.82,120.44,67.33,120.82,67Z"/><path class="cls-1" d="M159.67,34.56a1.92,1.92,0,0,0,.58.12l-.5-.19Z"/><path class="cls-1" d="M132,53.75l.22-.23a1.8,1.8,0,0,0,0-.38Z"/><path class="cls-1" d="M141.28,44.18c-.23.19.09.67.18.92a1,1,0,0,1,.2-.74A.71.71,0,0,0,141.28,44.18Z"/><path class="cls-1" d="M157.86,31l.4.12Z"/><path class="cls-1" d="M125.45,60.64a.4.4,0,0,0-.23,0A.28.28,0,0,0,125.45,60.64Z"/><path class="cls-1" d="M158.54,47.25s0,0,.07.07S158.62,47.19,158.54,47.25Z"/><path class="cls-1" d="M172.09,39.35l-.14.16a1.54,1.54,0,0,0,.16.28Z"/><path class="cls-1" d="M84.91,113l0,0C85.06,112.65,85,112.81,84.91,113Z"/><path class="cls-1" d="M41.69,140.44c-.75-1.13,2.06.63.81-.9C42.52,139.81,40.59,139.27,41.69,140.44Z"/><path class="cls-1" d="M159.41,34.34l-.48-.25A2.32,2.32,0,0,0,159.41,34.34Z"/><path class="cls-1" d="M42.5,139.53h0l-.13-.16Z"/><path class="cls-1" d="M71.52,137.75a.54.54,0,0,0,.25,0A.82.82,0,0,0,71.52,137.75Z"/><path class="cls-1" d="M82.16,119.79l-.33.41A2.59,2.59,0,0,0,82.16,119.79Z"/><path class="cls-1" d="M68.87,137.53a1.67,1.67,0,0,0-.49-.62.51.51,0,0,0,0,.14A.85.85,0,0,1,68.87,137.53Z"/><path class="cls-1" d="M60.49,129.51a2.08,2.08,0,0,0,.09.22l.3.21Z"/><path class="cls-1" d="M134.43,72.33a1.77,1.77,0,0,1,.73-.07C134.74,72.13,135.73,70.77,134.43,72.33Z"/><path class="cls-1" d="M159.82,34.28a.4.4,0,0,1-.41.05l.35.15C159.82,34.43,159.86,34.36,159.82,34.28Z"/><path class="cls-1" d="M65.26,140.14l-.54-.67c-.26-.34-.55-.66-.55-.66C64.47,139.18,64.84,139.68,65.26,140.14Z"/><path class="cls-1" d="M87.38,139.26l.15-.39A.71.71,0,0,0,87.38,139.26Z"/><path class="cls-1" d="M60.41,135.29a3,3,0,0,0-.47-.94.66.66,0,0,0-.25,0Z"/><path class="cls-1" d="M135.16,72.27h0Z"/><path class="cls-1" d="M142.26,62.53c-1.21,1.25,0,1.09,0,1.65-1.27,1.64-1.06.32-1.82.58-.75,1.07-.93,2.25-1.61,2.93-.14,0-.3.08-.26-.19-.53,1.36-2.65,3.06-3.15,4.74a.48.48,0,0,1-.27,0,1.34,1.34,0,0,1,.92.49c-.5.59-.59,1.39-1.14,1.29.32-.35.2-.51.23-.77l-.37.75c-1,.1.54-1,.16-1.33-.87,1.35-1.64,3.11-2.58,3.9-.68-.25,1.68-2.29.17-1.46L134,73.88c-1.75.38.8-.81-.93-.57-1.77,1.74-1.55,2.32-3.32,4.06-.08.66.55.22.47.88a3.58,3.58,0,0,1-2.31,2,2.05,2.05,0,0,0-1.69,1.61c-.07.81.44,1.55-1.06,2.7l-.21-1c-1.56,1.82,0,1.76-2,3.39,0-.53,1-1.63.68-1.4-1.49.89-.38,1.17-1.15,2.14l-.7-.22c-.75,1-1.49,2.15-2.19,3.34s-1.41,2.42-2.2,3.58c-.07-.25,0-.76-.51-.36a36.35,36.35,0,0,1-3.28,4.49c-1.22,1.44-2.5,2.83-3.62,4.13l-.27,1.42c-.18.25-.54.31-.44,0-.94,1,.27.27.09.93-.4.65-.85.63-.72.14-.92,2.24-3,6.1-4.84,7.85l.12-.5c-1.25,1.49-.19,2.49-1.62,3.7l.1-.35c-1.25,1.69-2.39,3.58-3.54,5.32a24.49,24.49,0,0,1-3.43,4.52c.4,1-2.49,3.35-1.63,4.19-1.75,1.74-1.59,1-3.62,3.77-.5.75,0,1.54-.49,2.56l-.55-.29-.2,1.63-1,.33-.39,1c.24-.34.68-.63.81-.49-.59,1.54-2.34,3.25-2.63,3.14l-1.41,3.64c-.18-.19.06-.8.17-1.33-.44,2.11-.75,0-1.16,2,.25-.16.26.3.35.39a12,12,0,0,0-2.4,4l-.23-.47c-1.43,2.49-2.64,5.45-4.07,8.35.7-.95,1.23-.38.88.5l-.75,0c.09.72.66-.77.54.57-.61,1-1,.4-.91-.32l-.45,1.41c-.21,0-.15-.36-.33-.55,0,.36-.38.86-.78,1.4a5,5,0,0,0-.53.84,1.74,1.74,0,0,0-.14.43c0,.12,0,.33,0,.34l-.17-.08a6.76,6.76,0,0,0-.15.78s-.09,0-.15-.11c-.09.86-.2.48-.58.72,0-.42-1.44-2.86-2.86-4.61-1.29-1.09-.68-.06-1.42-.4.31-.42-1.31-2.15-.22-1.48-1-1-1.61-1.68-2.33-2.38s-1.61-1.35-3-2.46c.13.42.37.79.09.76-.52-.39-.89-1.19-.66-1.3l.16.08a22.7,22.7,0,0,1-4.59-4.64c-1.48-1.66-2.9-3.27-4.48-3.84l.17.07-2.94-1.58c-1.14-1,1,.25.26-.69-3.35-1.45-4.43-3.46-7.17-4.64-1-2.58-6.74-4.35-8.84-6.75l0,.4c-.86-.11-.71-.67-1.17-1-.07.28.57.72.05.63-1.13-.59-2.26-1.2-3.38-1.86l-.3-.18-.22-.15-.37-.29a4.75,4.75,0,0,1,.68-.56l.07,0,0,0L31,127l.54-.58,1.09-1.17,2.18-2.33,2.07-2.27a2.14,2.14,0,0,1-.29-.89,1.71,1.71,0,0,1,0-.36.14.14,0,0,1,.11-.12c.11,0,.34.12.5.42A1.33,1.33,0,0,0,37,120a1.28,1.28,0,0,0-.1.32.28.28,0,0,1,.13-.09s0,0,.22,0l.43.15q.87.3,1.71.69c1.13.49,2.23,1.08,3.32,1.65,2.17,1.21,4.29,2.44,6.48,3.45-.32,0-.43.14-.83-.11a4.65,4.65,0,0,0,1.82,1.31c.72.36,1.4.57,1.52.41.59.45-.06.39.21.81.68.78,2.42,1,2.57,1.66,0,.12-.32,0-.49-.12.66.2,2.41,1.86,2.25,1,1.2,1.34,2.84,1.92,3.66,3.14,1.1.16,2.07,2.23,2.85,1.83-.36.28.06,1,.71,1.63a9.67,9.67,0,0,0,1.07.95,5.83,5.83,0,0,0,1,.68c-.45-.1.43.92-.14.84.21.23.43.46.63.65l.82.76c.59.57.93.77.94.4a15.09,15.09,0,0,0,2.15,3.35c.77.93,1.48,1.63,2.09,2.28.57-1.56,1-2.58,1.76-2.79.69-1.86,1.36-3.5,2-5l.52-1.39.51-1.29c.68-1.7,1.36-3.36,2.12-4.95.37.27-.07,1.13-.49,2s-.78,1.66-.33,1.81c1.18-3.12,1.45-5.18,3.22-8,.53-.68.1.61.1.94,1.34-3.07,3.2-5.58,4.33-8.36.07,0,0,.37-.11.67.28-.52.81-1.1.43-1.25l-.2.55c-1,.5.12-2.63-.09-2.88.5,1.46,1.76-2.37,2.22-.24.13-.37.21-.89-.07-1,.36-.45.59-.52.56.14.88-1.91.15-1.49,1.16-3.1.17.11,0,.48.12.76A6.56,6.56,0,0,1,91.13,111c0,.15.28.07,0,.47,1.42-2.36,1.63-4.54,3.65-6.84.22,1.22.81-.7,1.52-.42l.72-1.47-.66.34c.8-1.18,1.06-2.53,1.94-3.41L98,100.76l.69-1.15c.34-.58.71-1.13.71-1.13l-.56.54-.54.54c.5-1.41-.87-.41.39-1.85-.16.36.84-1.16,1.63-1.51h0a4.59,4.59,0,0,1,1.2-2.2c.35-.08.54.66.78.61-.1-.93,1.8-2.82,1.77-3.93,0,.33.26.58.38.54l-.07-.78c.51-.45.64-.47.83-.2,1.28-1.53-1.14-.06.61-1.7-.08.17,0,.15-.14.5,1.6-1.76,2.51-3.84,4-5.43,1-.05-1,1.63-.06,1.43.9-1.29,1.69-2.73,2.53-4.12A27.81,27.81,0,0,1,115,77.1l-.42.39c-.56-1,1.83-1.43,2.41-2.94-.18.34.14.76.12.6,1.45-1.5,2.44-3.5,4.29-6.07l0,.47c1-.77,2.23-2.35,3.19-3.26.05-.48.58-1,0-.93a12.19,12.19,0,0,0,4.13-4.2,11.67,11.67,0,0,1,3.88-3.95c-.29.32-.53.92-.29.67l1.93-2.42c-.5-.14-.48.1-1.19.33A4.14,4.14,0,0,1,134,54c-.73,1.23.55.5,1.14.24-.17,0-.14-.28-.28-.34,1.7-.61-.49-.84,1.42-2.07l.09.25a8.58,8.58,0,0,1,1.47-2c.64.12-.45.79-.17,1.14.87-.9,1-2.44,2.22-2.86-.27.48-.81,1-1.09,1.49a4.28,4.28,0,0,0,2-1.21l-.07.05,1.7-1.28-.5.26c.13-2.09,2.08-2.42,2.95-4.55-.86,2.06.11.6.41,1.14.5-.26,1.21-.69,1.16-.41.37-1,1.43-.9,2-2.35.18.1.8-.7,1-.19.85-1-.46,0-.54-.29,1-1.83,4-2.55,5.52-5.15a13.08,13.08,0,0,0,1.52-2.32c.18-.33.3-.61.54-1,.11-.18.25-.37.41-.58l.26-.33.14-.18c.05-.06.1-.15.17-.09.37.37.21.49,0,.56-.16.22-.34.59-.34.57l.29-.14s0,0,.07,0l.08.06.15.11a4.28,4.28,0,0,0,.55.34,8.55,8.55,0,0,0,1.3.49c-.29,0-.14.28.07.64.86.4.89-.33,1.86.52a3.25,3.25,0,0,1-1.2.24c1.07.37,2.21.57,3.31,1,.11.44-.86.13-1.32.13,1.22.48,3.11,1.32,3.72,1l-.64-.56c.43.2,0,.52-.36.44-1.18-.15-1.33-.92-1.29-1.13l.78.28c-.21-1.41-3-1.4-4.43-2.24l1-.41L159.21,33c-.18-.34-.23-.9.57-.61a1.78,1.78,0,0,0-1-.61c-.26-.06-.45-.09-.95-.62-.11-.14-.07-.16,0-.14l-.58-.17-.46.58c.15-.37-.34-.49.35-.95a8.24,8.24,0,0,0-2.26,2.12c-.41.56-.72,1-1.22,1l.1-.16c-2,2.16.2.65-.93,2.63L150.77,36l.2.64c-.24.18-.7.55-.79.29-.54,1.05.32.07.11.79-1.44.56-2.75,2.85-3.66,2.36-.06.68,1.26-.66.35.6-1.06-.48-1.16,1.36-2.42,1.93-.09-.67,1-1.34-.27-.77.07,1.21-2,1.65-2.63,2.56.47.56-1.5,1.91-2.66,3.39-.07-.24-2.81,2.15-4.17,3.24l-.05-.12c.3.76-1,2-1.8,3-.28-.34-.25-.63.09-1.28l-.83.9a2.63,2.63,0,0,1-.68,1.37l-.19-.6c-1.09,1.21-1.77,2.83-3.47,4.11.3.43,2.19-.25.93,1.59-.26-.13-.67-.39-.36-.88a2.16,2.16,0,0,1-.64.85l.26-1c-.8.56-.05.63-.6,1.15-.28-.28-.59.22-.75-.07.1-.17.58-.38.66-.69a5.69,5.69,0,0,1-2,1.26c.22.09.4.36,0,.86-1,1.25-.72.1-1.5.69-.05.48-.95,1.08-.52,1.49-.31.36-.58.24-.82.28-.36.81-2.53,3-1.43,2.71l.17-.14-.07.12h0a14.36,14.36,0,0,1-2.72,3.26,21.52,21.52,0,0,0-2.8,3.16l-.15-.13c-.85,1.41-2.19,2.91-2.59,4.08-.3.37-1,.66-1.05.35a7.21,7.21,0,0,1-2,2.51c.51-1.2-.52.15.61-1.16-1.17,1.15-1.6,1.28-2.24,3,0-.78-1.24.59-1.59,1.3l1-.69a16.36,16.36,0,0,1-1.46,1.9L106,83.5c-2.65,2.18-2.55,5.58-5.09,6.86-.13,1,1.31-1.28,1.3-.32-1,1.19-2.66,1.93-2.94,2.32-1.52,1.5-.34,2.16-1.82,3.8.36-.09,1,.06.27,1.51-1,1.2-1.88,1-1.5.07.19-.32.36-.41.41-.36.22-.45.51-1-.05-.69l.08.3c-.65.47-1.78,2.25-1.84,1.62-.46,1.09,0,.63.62,0-1.38,1.44-1.72,2.55-3,4.1.29-.2.68-.29.5,0-1.9,2.3-.35,1.33-1.38,3.06-.93.76-.52-.82-1.35,1-.87.91-.67-.12-.57-.64-.6,1.81-2.1,2.75-2.74,3.6l.36-.93a7.44,7.44,0,0,1-.73,1.37l.7-.22c-.38.44-.64.85-.8.73-.05.66.91,0,.65,1.25-.61.52-1,2.09-1.69,2,1.44-1.92-.69-.11.31-1.88a4.47,4.47,0,0,1-.78,1.21c-.1,0-.07-.14,0-.29-1.67,1.67.06,1.28-1.17,3.3-.15-.44-.86.13-1,.5.5-.82.74-.09.53.8-1,1.16-.67,1.52-1.11,2.19l.58-.71c.15.44-.28,1.07-.73,2-.29-.06.33-.92,0-.66-.06,1.32-1.88,2-2.33,3.62-.58.54-.62-.26-1.09.24-.5,1.83-1.43,1.49-2,3.39.68-.26.63-.4.39,1l.61-1.48.63-1.47-.2,1.06-.18,1.06c.45-.85.73-1.91,1.08-2.37-.14,1-.19.89.38.68-1.28.79-.89,2.47-2,3.57l-1-.6c-1.56,1.76-1.39,3.86-3,6.37l.62-.76c.24.57-.79,1.65-1,2.61-.16-.13-.33-.07-.52,0l-.29.21c-.1.08-.2.17-.26.14.13.06,0,.24,0,.48a1.91,1.91,0,0,0,.09,1.12.86.86,0,0,1-.28,0,.65.65,0,0,1-.24-.1,1.15,1.15,0,0,0-.21.57c-.14,0-.27.28-.49.34s-.54-.08-.91-.65c.25,0,.28-.27.36-.42a.32.32,0,0,1,.42-.2c-.19-.25-.31-.53-.46-.29,0-.1-.05-.15-.14-.21a1.41,1.41,0,0,1-.42-.25c-.47-.36-.95-.74-1-1.14-.35-.13-.72.07-1.28-.61,0-.12.14-.13.14-.13s-1.15-.78-.93.06a8.66,8.66,0,0,0-2.82-3.52,11.43,11.43,0,0,1-2.95-3.11l-2.21-1.55c-.77-.5-1.51-1-2.13-1.45.15,0,.12-.16.33,0-1.49-1.56-1.71.16-3.44-1.53-.66-1.22,1.25.43.75-.2.23-.63-.4-1-1.2-1.41a5.23,5.23,0,0,1-2.29-1.54l.37.15c-.82-1-2.85-1.15-4.57-2.22,0,0,.14-.05.11-.17-1.53-.1-3.93-1.13-5.76-1.78.76-.19.91.14.8-.48-.82-.31-.13.85-1.75.24-.2-.24-.55-.55-.85-.87s-.75-.72-.79-1l1,.43.76.33c-.27-.51-.61-.68-1.5-1a15,15,0,0,1-2.09-.69l.11-.29-.64-.23c-.1,0-.2-.1-.28-.06l-.18.25c-.23.33-.43.62-.6.9-.34.54-.58,1-.81,1.46l-.62,1.2a8.71,8.71,0,0,1-.92,1.29l.36-.07c-.31,1.62-1.11.68-1.57,2.18l-.89-.15L29,123.58c-.22.42-.46.87-.7,1.29s-.61,1-.89,1.39a3.79,3.79,0,0,1,.33-1l.54-1.18c.34-.73.73-1.47,1-2.06a14.6,14.6,0,0,0-2.22,3.48c.26-.44.62-1.2.89-1.35a4.55,4.55,0,0,1-.11.47l-.25.6c-.17.39-.36.77-.56,1.15a22.26,22.26,0,0,1-1.49,2.29l.33.17c-.66.08-.67.32-.23.7a18.78,18.78,0,0,0,2.2,1.42l.71.41.64.39c.31.2.61.4.88.61a3,3,0,0,1,1.11,1.27c3.16,1.21,5.5,3.65,8.77,5.71-.48-1.75,1,.6,1.44-.54.79.45,1.06.66,1.09.78l1.84,2.16c.32.67-.85-.28-.95,0,1.56,1.21.37.9,1.24,1.93,0-.51.92-.1,1.73.69l-.94-1.39c2.61,1.11,1.33,2.21,3.9,3.4l-.93-.23c.63.34,1.66,1.15,2.75,1.88a7.59,7.59,0,0,0,3,1.51c.1.27.14.74-.39.41a24.69,24.69,0,0,0,2.09,1.64c.73.55,1.48,1.08,2.22,1.6a12.57,12.57,0,0,1,3.51,3.28l-.39,0c.51.38,1.18.38,1.52,1.14-.12.06-.39,0-.2.25a5.19,5.19,0,0,1,2,1.58l-.72-.3a11.12,11.12,0,0,0,3,2.84,20.27,20.27,0,0,1,2.88,2.43.67.67,0,0,0-.18.67,2.72,2.72,0,0,0,.12.48l.1.27.06.14c.06.1.15.22.18.29.66,1.32,1.63,3,2.3,4.08l-.09.09c1.09,1.67,2.13,3.15,3.06,4.38,1-2.41,1.79-4.7,2.52-6.78.37-1,.73-2,1.09-3,.11-.28.13-.36.18-.53l.15-.45.33-.92c1.84-1.59,3.72-6.63,5.9-9.56-.4.41-.57-.4-.35-1,.55-.67.55-2.36,1.2-1.86l-.15.26c1-.2,1.64-1.81,2.31-3l-.82-.7C89,146.05,90,143.95,90.93,142s1.73-3.67,2.81-4.17c.2-.87.74-1.79.93-2.66l.47.33c1.3-2,2-2.94,3.42-5.52l0,.72c.89-1.39-.3-2.63.47-4l1,.05c1.47-2.49,3.71-4.52,4.62-7.33a.58.58,0,0,1,0,.72c.76-1.13,3.34-4.09,2.1-4.32.64.39,1.68-2.46,2.32-3.92l.32.51a5.85,5.85,0,0,1,.91-3.25c.31-.32.58-.06.14.33,1.07-1,.21-1.23,1.46-2.51l-.08.74a2.87,2.87,0,0,0,.79-2.13c.35-.9,1.73-2.25,2.27-2.14a2.08,2.08,0,0,1,.66-1.87c.23,0,.13.34.08.51,1.8-1.78,1.69-3.37,3.16-4.43a.42.42,0,0,0,.44,0c-1.19,1.59-2.17,2.85-2.11,2.71.42.3,1.44-.93,1.26.51.45-1.26,1.09-3.53,2.21-4.64a.72.72,0,0,1,.27-.06l-.05.16a2.33,2.33,0,0,0,.52-.84,7.62,7.62,0,0,0,.89-.95c.46.12,1.26-1.35,1.79-1.95-.49-.29.24-1.05-.74-.57.11-.07,0,.16-.35.59a1.72,1.72,0,0,0-.16.31V92.9l-1.15,1.62a2.69,2.69,0,0,1,1.13-1.88,12.42,12.42,0,0,1,0-1.43c1.31-.38,3-1.76,3.52-1.69,1.27-2.1,3.42-4.61,3.56-6.49.33-.63.73-.43,1-.53-.17.38-.48.74-.5,1a23.86,23.86,0,0,1,1.46-2.19c.52-.73.91-1.4.74-1.76,1.4-1.11-.13,1.18,1.36-.71l0,.39a12.86,12.86,0,0,0,3.87-4.94,19.15,19.15,0,0,1,1.67-2.65,8.86,8.86,0,0,1,2.71-2.36c-.32.2-.48.3-.62.27A63.12,63.12,0,0,0,147.78,63c1-1.14,2-2.31,3.14-3.35a29.7,29.7,0,0,1,3.55-2.8c1.36-1,1.16-1.47,1.66-2.43l.68.19.79-1.72c1.48-2.07,4.05-1.94,5.83-4.64l-.58,0c.91-.67,2.57-2.5,2.73-2,0-.13,0-.56.48-.69l.23.22,1.76-2.21c1.78-1.22.55,1.18,3-.8.81-.85,1.94-2.86,1.48-2.74-.37.29-1,.63-1.27.4l.71-.82c-.44-.85-.39-2.14-2.82-.93l-1,1.64-.74,0,1.17-1c-.94.24-1.13.9-1.44,1.5a1.17,1.17,0,0,0-.91.12l-.81,1.85c-.4-.14.15-1.08-.91-.44-.38.86,1.15.09.26,1.21-.95.25-1-.18-1.53.77-.27-.09-.2-.34,0-.69-.52.82-1.78,1.68-1.82,2.36-1,.21-2.29,2.11-2.79,1.42a6.89,6.89,0,0,1-1.3,2.24c.41-1.84-2.34,2.14-2.81,1-.18,1.48-2.71,3.17-3.81,4.94,0-.13.08-.39.25-.48a8.91,8.91,0,0,1-2,1.14c.44.66-.72,2-1,3.06-1.5.48-.07-1.26-.89-1.46.5.4-1.22,2.21-.52,2.23-1.07.45-.8.51-1.64.46.58.82-.57.84-.74,1.9-1.41.79-.94-.34-1.89,1.1C141.47,63.87,142.26,62.53,142.26,62.53Zm-24.71,32h0l.47-.69Zm-2,2.73c.26-.32.57-.73.89-1.17.23,0,.31.24.1.51C116.54,96.39,116,97,115.54,97.27Zm7.36-3.39c-.25.47-.45.55-.58.54.14-.21.3-.45.5-.79,0,0,0-.07,0-.09A.71.71,0,0,1,122.9,93.88Z"/><path class="cls-1" d="M122.88,92.66a1.12,1.12,0,0,1,.1-.2,2.09,2.09,0,0,0-.29.17l0,.26Z"/><path class="cls-1" d="M121.2,66.67l-.06,0a.42.42,0,0,1,.16-.06A.48.48,0,0,1,121.2,66.67Z"/><polygon class="cls-1" points="89.03 135.85 89.16 135.92 89.2 135.6 89.03 135.85"/><path class="cls-1" d="M135.1,54.2a.44.44,0,0,0,.27-.08S135.23,54.14,135.1,54.2Z"/><path class="cls-1" d="M140.8,48.58l.95-.65A9.66,9.66,0,0,0,140.8,48.58Z"/><path class="cls-1" d="M145.37,44.45a.64.64,0,0,0-.08-.26h0Z"/><path class="cls-1" d="M85.62,121.33a1.5,1.5,0,0,0-.1.22C85.33,122.08,85.49,121.73,85.62,121.33Z"/><path class="cls-1" d="M100.3,96.2a7.73,7.73,0,0,1-.33.92C100.31,96.72,100.56,96.4,100.3,96.2Z"/><path class="cls-1" d="M65.37,140.29h0l-.13-.14Z"/><path class="cls-1" d="M99.18,98.21a3.24,3.24,0,0,0,.79-1.1A5,5,0,0,0,99.18,98.21Z"/><path class="cls-1" d="M164.5,37.21l.25.16a.11.11,0,0,1,.07-.06Z"/><path class="cls-1" d="M164.83,37.31l.32.1C165,37.33,164.9,37.28,164.83,37.31Z"/><path class="cls-1" d="M165.83,37.61l-.68-.2C165.36,37.52,165.61,37.68,165.83,37.61Z"/><path class="cls-1" d="M158,33.43l-.06.2A.49.49,0,0,0,158,33.43Z"/><path class="cls-1" d="M157,33.84a1.18,1.18,0,0,1,.48-.14c.08,0,.15-.07.23,0a.43.43,0,0,0,.23.11l0-.16c0,.06-.11,0-.19,0l-.14-.14a.59.59,0,0,0-.14,0C157.26,33.48,157,33.58,157,33.84Z"/><path class="cls-1" d="M147.82,38.72l1.66-1.28c-.42.09-1,.19-.3-.48C146.79,38.25,149.91,36.95,147.82,38.72Z"/><path class="cls-1" d="M142.92,43c.73-.86-.23-.22-.27-.35C142.28,43.26,142.2,43.41,142.92,43Z"/><path class="cls-1" d="M111.54,77.62l-.33-.41C110.72,77.93,111.36,77.35,111.54,77.62Z"/><polygon class="cls-1" points="108.18 86.3 108.94 85.82 108.8 85.22 108.18 86.3"/><path class="cls-1" d="M102.07,88.32l.17-.35s-.18.31-.35.64l-.34.64Z"/><path class="cls-1" d="M62.4,130.45l-.21.65C62.7,131.42,63.26,131,62.4,130.45Z"/><path class="cls-1" d="M32.11,119.11a2,2,0,0,0-1.36,1.35C31.26,119.9,31.93,119.46,32.11,119.11Z"/><polygon class="cls-1" points="89.02 146.14 88.88 146.84 89.34 145.64 89.02 146.14"/></svg>