<svg id="Layer_1" data-name="Layer 1" xmlns="http://www.w3.org/2000/svg" viewBox="0 0 1500 1031"><defs><style>.cls-1{opacity:0.1;}.cls-2{fill:#fff;}</style></defs><title>contact-bg</title><g class="cls-1"><path class="cls-2" d="M190,187.09c1.31-5.87,3-11.69,3.88-17.63,4.31-30.23,8.39-60.49,12.6-91.14H565.07L549.52,190.09h-9.66c-29.6,0-59.2.15-88.8-.12-6.44-.06-8.33,2.6-9.12,8.5-3.15,23.48-6.91,46.88-10.15,70.34-3.16,22.94-5.73,46-9,68.88-3.72,26.28-8.06,52.46-11.82,78.73-2.63,18.34-4.74,36.76-7.11,55.41h-146L297.5,190.57H190Z"/><path class="cls-2" d="M922.29,77.84h52.22c28.73,0,57.46.13,86.19-.12,5.09,0,8,1.49,9.84,6.17q35.22,87.32,70.63,174.55c2.11,5.19,4.7,10.18,8,17.27L1176.65,78.4H1310l-55.36,393.46c-2.29.13-4.55.37-6.8.37-41.21,0-82.42-.06-123.63.11-5.23,0-7.61-1.22-10-6.65-20.29-47-41.22-93.63-61.94-140.39q-11-24.88-22-49.8l-2.27.13-27.77,196.19H866.91Z"/><path class="cls-2" d="M714,188l-5.3,34.06h147.9L841.8,325.94h-9.34c-43,0-85.91.18-128.87-.16-7.9-.06-10.71,2.48-10.93,10.31-.23,8.19-1.94,16.34-3.14,25.56H858.39L842.52,471.84H532.28L587.57,78.31H897.78L882.15,188Z"/><path class="cls-2" d="M1303.13,518.09c8.6.79,17.24,1.19,25.86,1.9,33.06,2.69,64.32,12.29,96,24.92L1385.17,659.4c-5.5-3.27-9.41-5.94-13.61-8-33.45-16.57-68.69-22.87-105.59-16.45-24.34,4.24-46.94,13.72-65,30.87-26.76,25.42-37.19,56.86-32,93.79,3.29,23.51,12.28,44.45,29.05,60.53,28.36,27.2,62.41,34.78,99.53,20.74,12.62-4.77,23.77-13.42,35.59-20.3l-1.25-3.41-58.4-4.1,9.15-66.91c18.13,1.23,35.61,2.2,53,3.66,25.78,2.15,51.52,4.71,77.29,7,20.12,1.76,40.26,3.3,60.4,4.94v7.23c-.75,1.1-2.08,2.15-2.16,3.3-1.94,27.37-3.88,54.73-5.53,82.12-1.42,23.56-2.35,47.14-3.74,70.7-.54,9.12-1.77,18.2-2.77,28.12l-71.57-4.55,7.11-53.9c-2.61,1.54-3.47,1.84-4,2.42-29.47,30.92-66.73,44.22-107.78,54.2-3.64.88-10.73,2.13-17.71,3.07-10.42,2.08-29.6.83-48.33-.42-5.77-.75-12.88-1.91-18.44-2.81-42.75-6.95-81.24-23.13-114.77-51.06-35.64-29.69-57.28-67.09-63.39-113-7.93-59.61,6.62-114,41.15-162.83,20.79-29.42,47.73-52.29,79.19-69.84,31.9-17.8,66.18-28.67,102.13-34.17,11.17-1.71,22.64-1.38,34-2.21"/><path class="cls-2" d="M732.92,735,704,939.48H565.61l57.56-409.95c2.64-.16,5.26-.47,7.89-.47,44.88,0,89.75.12,134.63-.18,6.6,0,9.08,2.36,11.46,8.28,18.35,45.61,37.21,91,55.86,136.5,7.3,17.81,14.46,35.68,21.72,53.5a9.61,9.61,0,0,0,4.26,5.11l28.25-202.65H1025.7L968,940.16h-8.38c-41.86,0-83.73-.1-125.59.11-6.11,0-8.87-1.46-11.53-7.74-14.1-33.32-29.25-66.19-43.89-99.28-14.49-32.75-28.81-65.58-43.21-98.37Z"/><path class="cls-2" d="M394.85,544.62,355.54,657.86c-15.74-5.1-30.41-10.53-45.46-14.58-24.25-6.52-49-9.85-74.22-8.47a54.08,54.08,0,0,0-18.08,3.83c-3.47,1.49-7.65,5.94-7.82,9.25s3.56,8.85,6.77,10c15.3,5.31,30.89,9.88,46.59,13.89,31,7.93,61.2,17.2,84.36,41.35,15.08,15.73,22.31,35.09,25.88,55.72,4.47,25.88,1.95,51.52-6.46,76.58-11.29,33.63-33.57,57.74-64.26,74.29-30.54,16.47-63.45,24.64-98.11,25.92-12.85.47-25.73,2.15-38.53,1.61-46.84-2-92.57-9.81-135.78-29-1.73-.77-3.53-5.06-2.91-6.91,12.08-36.49,24.51-72.86,37-109.53,14.16,6.37,27.4,12.87,41.05,18.35,30,12,61.48,16.06,93.64,14.15,5.72-.34,11.62-2.36,16.87-4.82,9.48-4.44,9.79-12.28.18-17.13-8.35-4.22-17.62-6.79-26.69-9.4-22.14-6.36-45.41-10-66.39-19-35.48-15.21-56.66-42.76-61.28-82.45a163.6,163.6,0,0,1,4.9-64.42C76.64,602.23,96.44,574.92,127,555a191.72,191.72,0,0,1,89.84-31.15C237.71,522,259,520,279.68,522.37c32.55,3.77,64.69,11.1,97,17.13C382.39,540.57,387.94,542.65,394.85,544.62Z"/><path class="cls-2" d="M525.9,939.83H374.72l57.71-410.37H583.62Z"/></g></svg>